<svg xmlns="http://www.w3.org/2000/svg" xmlns:xlink="http://www.w3.org/1999/xlink" width="2540" zoomAndPan="magnify" viewBox="0 0 1904.88 526.499984" height="702" preserveAspectRatio="xMidYMid meet" version="1.0"><defs><g/><clipPath id="e3c6263ccf"><path d="M 165.074219 102.359375 L 664.851562 102.359375 L 664.851562 435.792969 L 165.074219 435.792969 Z M 165.074219 102.359375 " clip-rule="nonzero"/></clipPath><clipPath id="bb4909a483"><path d="M 165.074219 113.597656 L 165.074219 424.484375 C 165.074219 430.691406 170.109375 435.726562 176.316406 435.726562 L 653.882812 435.726562 C 660.089844 435.726562 665.125 430.691406 665.125 424.484375 L 665.125 113.597656 C 665.125 110.617188 663.9375 107.757812 661.832031 105.652344 C 659.722656 103.542969 656.863281 102.359375 653.882812 102.359375 L 176.316406 102.359375 C 170.109375 102.359375 165.074219 107.390625 165.074219 113.597656 Z M 165.074219 113.597656 " clip-rule="nonzero"/></clipPath><clipPath id="e3a94bad21"><path d="M 209 138 L 321 138 L 321 250 L 209 250 Z M 209 138 " clip-rule="nonzero"/></clipPath><clipPath id="ea27e4f335"><path d="M 165.074219 113.597656 L 165.074219 424.484375 C 165.074219 430.691406 170.109375 435.726562 176.316406 435.726562 L 653.882812 435.726562 C 660.089844 435.726562 665.125 430.691406 665.125 424.484375 L 665.125 113.597656 C 665.125 110.617188 663.9375 107.757812 661.832031 105.652344 C 659.722656 103.542969 656.863281 102.359375 653.882812 102.359375 L 176.316406 102.359375 C 170.109375 102.359375 165.074219 107.390625 165.074219 113.597656 Z M 165.074219 113.597656 " clip-rule="nonzero"/></clipPath><clipPath id="bbed1c7e7f"><path d="M 231 160 L 299 160 L 299 228 L 231 228 Z M 231 160 " clip-rule="nonzero"/></clipPath><clipPath id="5282eb0f16"><path d="M 165.074219 113.597656 L 165.074219 424.484375 C 165.074219 430.691406 170.109375 435.726562 176.316406 435.726562 L 653.882812 435.726562 C 660.089844 435.726562 665.125 430.691406 665.125 424.484375 L 665.125 113.597656 C 665.125 110.617188 663.9375 107.757812 661.832031 105.652344 C 659.722656 103.542969 656.863281 102.359375 653.882812 102.359375 L 176.316406 102.359375 C 170.109375 102.359375 165.074219 107.390625 165.074219 113.597656 Z M 165.074219 113.597656 " clip-rule="nonzero"/></clipPath><clipPath id="1f245e989a"><path d="M 237 166 L 293 166 L 293 223 L 237 223 Z M 237 166 " clip-rule="nonzero"/></clipPath><clipPath id="a10a59a2d5"><path d="M 165.074219 113.597656 L 165.074219 424.484375 C 165.074219 430.691406 170.109375 435.726562 176.316406 435.726562 L 653.882812 435.726562 C 660.089844 435.726562 665.125 430.691406 665.125 424.484375 L 665.125 113.597656 C 665.125 110.617188 663.9375 107.757812 661.832031 105.652344 C 659.722656 103.542969 656.863281 102.359375 653.882812 102.359375 L 176.316406 102.359375 C 170.109375 102.359375 165.074219 107.390625 165.074219 113.597656 Z M 165.074219 113.597656 " clip-rule="nonzero"/></clipPath></defs><g clip-path="url(#e3c6263ccf)"><g clip-path="url(#bb4909a483)"><path fill="#003580" d="M 165.074219 102.359375 L 664.851562 102.359375 L 165.074219 435.792969 Z M 165.074219 102.359375 " fill-opacity="1" fill-rule="nonzero"/><path fill="#009543" d="M 165.074219 435.792969 L 664.851562 435.792969 L 664.851562 102.359375 Z M 165.074219 435.792969 " fill-opacity="1" fill-rule="nonzero"/></g></g><g clip-path="url(#e3a94bad21)"><g clip-path="url(#ea27e4f335)"><path fill="#ffce00" d="M 313.121094 221.835938 L 288.589844 217.628906 L 292.796875 242.175781 L 273.652344 226.257812 L 265.03125 249.621094 L 256.40625 226.257812 L 237.265625 242.175781 L 241.46875 217.628906 L 216.9375 221.835938 L 232.847656 202.679688 L 209.5 194.050781 L 232.847656 185.421875 L 216.9375 166.265625 L 241.46875 170.472656 L 237.265625 145.921875 L 256.40625 161.84375 L 265.03125 138.476562 L 273.652344 161.84375 L 292.796875 145.921875 L 288.589844 170.472656 L 313.121094 166.265625 L 297.210938 185.421875 L 320.558594 194.050781 L 297.210938 202.679688 Z M 313.121094 221.835938 " fill-opacity="1" fill-rule="nonzero"/></g></g><g clip-path="url(#bbed1c7e7f)"><g clip-path="url(#5282eb0f16)"><path fill="#003580" d="M 298.34375 194.050781 C 298.34375 195.140625 298.289062 196.230469 298.183594 197.316406 C 298.074219 198.40625 297.914062 199.484375 297.703125 200.554688 C 297.488281 201.625 297.226562 202.683594 296.90625 203.730469 C 296.589844 204.773438 296.222656 205.800781 295.808594 206.808594 C 295.390625 207.816406 294.921875 208.804688 294.410156 209.765625 C 293.894531 210.730469 293.335938 211.664062 292.726562 212.574219 C 292.121094 213.480469 291.472656 214.359375 290.78125 215.203125 C 290.085938 216.046875 289.355469 216.855469 288.585938 217.625 C 287.8125 218.398438 287.003906 219.132812 286.160156 219.824219 C 285.316406 220.515625 284.441406 221.167969 283.535156 221.773438 C 282.628906 222.378906 281.695312 222.941406 280.730469 223.457031 C 279.769531 223.96875 278.785156 224.4375 277.773438 224.855469 C 276.765625 225.273438 275.742188 225.640625 274.695312 225.957031 C 273.652344 226.273438 272.59375 226.539062 271.523438 226.75 C 270.453125 226.964844 269.375 227.125 268.289062 227.230469 C 267.203125 227.339844 266.117188 227.390625 265.023438 227.390625 C 263.933594 227.390625 262.84375 227.339844 261.757812 227.230469 C 260.671875 227.125 259.59375 226.964844 258.523438 226.75 C 257.457031 226.539062 256.398438 226.273438 255.355469 225.957031 C 254.308594 225.640625 253.285156 225.273438 252.273438 224.855469 C 251.265625 224.4375 250.28125 223.96875 249.320312 223.457031 C 248.355469 222.941406 247.421875 222.378906 246.515625 221.773438 C 245.609375 221.167969 244.730469 220.515625 243.890625 219.824219 C 243.046875 219.132812 242.238281 218.398438 241.464844 217.625 C 240.695312 216.855469 239.960938 216.046875 239.269531 215.203125 C 238.578125 214.359375 237.929688 213.480469 237.324219 212.574219 C 236.714844 211.664062 236.15625 210.730469 235.640625 209.765625 C 235.128906 208.804688 234.660156 207.816406 234.242188 206.808594 C 233.828125 205.800781 233.460938 204.773438 233.140625 203.726562 C 232.824219 202.683594 232.5625 201.625 232.347656 200.554688 C 232.136719 199.484375 231.976562 198.40625 231.867188 197.316406 C 231.761719 196.230469 231.707031 195.140625 231.707031 194.050781 C 231.707031 192.957031 231.761719 191.867188 231.867188 190.78125 C 231.976562 189.695312 232.136719 188.617188 232.347656 187.542969 C 232.5625 186.472656 232.824219 185.414062 233.140625 184.371094 C 233.460938 183.324219 233.828125 182.300781 234.242188 181.289062 C 234.660156 180.28125 235.128906 179.296875 235.640625 178.332031 C 236.15625 177.367188 236.714844 176.433594 237.324219 175.527344 C 237.929688 174.617188 238.578125 173.742188 239.269531 172.898438 C 239.960938 172.054688 240.695312 171.246094 241.464844 170.472656 C 242.238281 169.699219 243.046875 168.96875 243.890625 168.277344 C 244.730469 167.582031 245.609375 166.933594 246.515625 166.328125 C 247.421875 165.71875 248.355469 165.160156 249.320312 164.644531 C 250.28125 164.128906 251.265625 163.664062 252.273438 163.246094 C 253.285156 162.828125 254.308594 162.460938 255.355469 162.144531 C 256.398438 161.824219 257.457031 161.5625 258.523438 161.347656 C 259.59375 161.136719 260.671875 160.976562 261.757812 160.867188 C 262.84375 160.761719 263.933594 160.707031 265.023438 160.707031 C 266.117188 160.707031 267.203125 160.761719 268.289062 160.867188 C 269.375 160.976562 270.453125 161.136719 271.523438 161.347656 C 272.59375 161.5625 273.652344 161.824219 274.695312 162.144531 C 275.742188 162.460938 276.765625 162.828125 277.773438 163.246094 C 278.785156 163.664062 279.769531 164.128906 280.730469 164.644531 C 281.695312 165.160156 282.628906 165.71875 283.535156 166.328125 C 284.441406 166.933594 285.316406 167.582031 286.160156 168.277344 C 287.003906 168.96875 287.8125 169.699219 288.585938 170.472656 C 289.355469 171.246094 290.085938 172.054688 290.78125 172.898438 C 291.472656 173.742188 292.121094 174.617188 292.726562 175.527344 C 293.335938 176.433594 293.894531 177.367188 294.410156 178.332031 C 294.921875 179.296875 295.390625 180.28125 295.808594 181.289062 C 296.222656 182.300781 296.589844 183.324219 296.90625 184.371094 C 297.226562 185.414062 297.488281 186.472656 297.703125 187.542969 C 297.914062 188.617188 298.074219 189.695312 298.183594 190.78125 C 298.289062 191.867188 298.34375 192.957031 298.34375 194.050781 Z M 298.34375 194.050781 " fill-opacity="1" fill-rule="nonzero"/></g></g><g clip-path="url(#1f245e989a)"><g clip-path="url(#a10a59a2d5)"><path fill="#ffce00" d="M 292.792969 194.054688 C 292.800781 194.96875 292.761719 195.882812 292.675781 196.789062 C 292.59375 197.699219 292.464844 198.605469 292.289062 199.5 C 292.117188 200.398438 291.898438 201.285156 291.640625 202.160156 C 291.378906 203.035156 291.074219 203.894531 290.730469 204.742188 C 290.386719 205.585938 290 206.414062 289.570312 207.222656 C 289.144531 208.027344 288.679688 208.8125 288.175781 209.574219 C 287.671875 210.335938 287.128906 211.070312 286.554688 211.78125 C 285.976562 212.488281 285.367188 213.167969 284.722656 213.8125 C 284.078125 214.460938 283.40625 215.078125 282.703125 215.660156 C 281.996094 216.238281 281.265625 216.785156 280.507812 217.292969 C 279.75 217.804688 278.96875 218.273438 278.164062 218.707031 C 277.359375 219.140625 276.539062 219.53125 275.695312 219.882812 C 274.851562 220.234375 273.992188 220.542969 273.121094 220.808594 C 272.246094 221.074219 271.363281 221.296875 270.46875 221.476562 C 269.574219 221.652344 268.671875 221.789062 267.761719 221.878906 C 266.851562 221.96875 265.941406 222.011719 265.03125 222.011719 C 264.117188 222.011719 263.207031 221.96875 262.296875 221.878906 C 261.390625 221.789062 260.488281 221.652344 259.59375 221.476562 C 258.695312 221.296875 257.8125 221.074219 256.9375 220.808594 C 256.066406 220.542969 255.207031 220.234375 254.363281 219.882812 C 253.523438 219.53125 252.699219 219.140625 251.894531 218.707031 C 251.089844 218.273438 250.308594 217.804688 249.550781 217.292969 C 248.792969 216.785156 248.0625 216.238281 247.359375 215.660156 C 246.652344 215.078125 245.980469 214.460938 245.335938 213.8125 C 244.691406 213.167969 244.082031 212.488281 243.507812 211.78125 C 242.929688 211.070312 242.390625 210.335938 241.882812 209.574219 C 241.378906 208.8125 240.914062 208.027344 240.488281 207.222656 C 240.0625 206.414062 239.675781 205.585938 239.328125 204.742188 C 238.984375 203.894531 238.679688 203.035156 238.421875 202.160156 C 238.160156 201.285156 237.941406 200.398438 237.769531 199.5 C 237.597656 198.605469 237.46875 197.699219 237.382812 196.789062 C 237.296875 195.882812 237.257812 194.96875 237.265625 194.054688 C 237.257812 193.140625 237.296875 192.230469 237.382812 191.320312 C 237.46875 190.410156 237.597656 189.507812 237.769531 188.609375 C 237.941406 187.714844 238.160156 186.828125 238.421875 185.953125 C 238.679688 185.078125 238.984375 184.214844 239.328125 183.371094 C 239.675781 182.523438 240.0625 181.699219 240.488281 180.890625 C 240.914062 180.082031 241.378906 179.296875 241.882812 178.535156 C 242.390625 177.773438 242.929688 177.039062 243.507812 176.332031 C 244.082031 175.625 244.691406 174.945312 245.335938 174.296875 C 245.980469 173.648438 246.652344 173.035156 247.359375 172.453125 C 248.0625 171.871094 248.792969 171.328125 249.550781 170.816406 C 250.308594 170.308594 251.089844 169.835938 251.894531 169.40625 C 252.699219 168.972656 253.523438 168.582031 254.363281 168.230469 C 255.207031 167.878906 256.066406 167.570312 256.9375 167.304688 C 257.8125 167.039062 258.695312 166.816406 259.59375 166.636719 C 260.488281 166.457031 261.390625 166.324219 262.296875 166.234375 C 263.207031 166.144531 264.117188 166.097656 265.03125 166.097656 C 265.941406 166.097656 266.851562 166.144531 267.761719 166.234375 C 268.671875 166.324219 269.574219 166.457031 270.46875 166.636719 C 271.363281 166.816406 272.246094 167.039062 273.121094 167.304688 C 273.992188 167.570312 274.851562 167.878906 275.695312 168.230469 C 276.539062 168.582031 277.359375 168.972656 278.164062 169.40625 C 278.96875 169.835938 279.75 170.308594 280.507812 170.816406 C 281.265625 171.328125 281.996094 171.871094 282.703125 172.453125 C 283.40625 173.035156 284.078125 173.648438 284.722656 174.296875 C 285.367188 174.945312 285.976562 175.625 286.554688 176.332031 C 287.128906 177.039062 287.671875 177.773438 288.175781 178.535156 C 288.679688 179.296875 289.144531 180.082031 289.570312 180.890625 C 290 181.699219 290.386719 182.523438 290.730469 183.371094 C 291.074219 184.214844 291.378906 185.078125 291.640625 185.953125 C 291.898438 186.828125 292.117188 187.714844 292.289062 188.609375 C 292.464844 189.507812 292.59375 190.410156 292.675781 191.320312 C 292.761719 192.230469 292.800781 193.140625 292.792969 194.054688 Z M 292.792969 194.054688 " fill-opacity="1" fill-rule="nonzero"/></g></g><g fill="#000000" fill-opacity="1"><g transform="translate(733.399849, 351.089604)"><g><path d="M 162.453125 -160.84375 L 162.453125 0 L 143.609375 0 L 47.109375 -119.953125 L 47.109375 0 L 24.125 0 L 24.125 -160.84375 L 42.96875 -160.84375 L 139.484375 -40.90625 L 139.484375 -160.84375 Z M 162.453125 -160.84375 "/></g></g></g><g fill="#000000" fill-opacity="1"><g transform="translate(919.978265, 351.089604)"><g><path d="M 65.265625 -122.9375 C 82.109375 -122.9375 95.007812 -118.796875 103.96875 -110.515625 C 112.9375 -102.242188 117.421875 -89.914062 117.421875 -73.53125 L 117.421875 0 L 96.515625 0 L 96.515625 -16.078125 C 92.835938 -10.410156 87.585938 -6.082031 80.765625 -3.09375 C 73.953125 -0.113281 65.875 1.375 56.53125 1.375 C 42.894531 1.375 31.976562 -1.914062 23.78125 -8.5 C 15.582031 -15.082031 11.484375 -23.738281 11.484375 -34.46875 C 11.484375 -45.1875 15.390625 -53.800781 23.203125 -60.3125 C 31.015625 -66.820312 43.425781 -70.078125 60.4375 -70.078125 L 95.359375 -70.078125 L 95.359375 -74.453125 C 95.359375 -83.953125 92.597656 -91.226562 87.078125 -96.28125 C 81.566406 -101.332031 73.453125 -103.859375 62.734375 -103.859375 C 55.535156 -103.859375 48.488281 -102.671875 41.59375 -100.296875 C 34.695312 -97.921875 28.875 -94.742188 24.125 -90.765625 L 14.9375 -107.3125 C 21.21875 -112.363281 28.722656 -116.226562 37.453125 -118.90625 C 46.179688 -121.59375 55.453125 -122.9375 65.265625 -122.9375 Z M 60.203125 -15.625 C 68.628906 -15.625 75.90625 -17.5 82.03125 -21.25 C 88.15625 -25.007812 92.597656 -30.332031 95.359375 -37.21875 L 95.359375 -54.234375 L 61.359375 -54.234375 C 42.660156 -54.234375 33.3125 -47.953125 33.3125 -35.390625 C 33.3125 -29.253906 35.6875 -24.425781 40.4375 -20.90625 C 45.1875 -17.382812 51.773438 -15.625 60.203125 -15.625 Z M 60.203125 -15.625 "/></g></g></g><g fill="#000000" fill-opacity="1"><g transform="translate(1057.384565, 351.089604)"><g><path d="M 173.25 -122.9375 C 188.570312 -122.9375 200.710938 -118.492188 209.671875 -109.609375 C 218.640625 -100.722656 223.125 -87.546875 223.125 -70.078125 L 223.125 0 L 201.0625 0 L 201.0625 -67.5625 C 201.0625 -79.351562 198.34375 -88.234375 192.90625 -94.203125 C 187.46875 -100.179688 179.691406 -103.171875 169.578125 -103.171875 C 158.390625 -103.171875 149.503906 -99.6875 142.921875 -92.71875 C 136.335938 -85.75 133.046875 -75.753906 133.046875 -62.734375 L 133.046875 0 L 110.984375 0 L 110.984375 -67.5625 C 110.984375 -79.351562 108.265625 -88.234375 102.828125 -94.203125 C 97.390625 -100.179688 89.613281 -103.171875 79.5 -103.171875 C 68.320312 -103.171875 59.4375 -99.6875 52.84375 -92.71875 C 46.257812 -85.75 42.96875 -75.753906 42.96875 -62.734375 L 42.96875 0 L 20.90625 0 L 20.90625 -121.78125 L 42.046875 -121.78125 L 42.046875 -103.625 C 46.492188 -109.90625 52.316406 -114.691406 59.515625 -117.984375 C 66.710938 -121.285156 74.90625 -122.9375 84.09375 -122.9375 C 93.59375 -122.9375 102.019531 -121.019531 109.375 -117.1875 C 116.726562 -113.351562 122.394531 -107.765625 126.375 -100.421875 C 130.96875 -107.460938 137.363281 -112.972656 145.5625 -116.953125 C 153.757812 -120.941406 162.988281 -122.9375 173.25 -122.9375 Z M 173.25 -122.9375 "/></g></g></g><g fill="#000000" fill-opacity="1"><g transform="translate(1300.258223, 351.089604)"><g><path d="M 20.90625 -121.78125 L 42.96875 -121.78125 L 42.96875 0 L 20.90625 0 Z M 31.9375 -145.21875 C 27.644531 -145.21875 24.082031 -146.597656 21.25 -149.359375 C 18.414062 -152.117188 17 -155.488281 17 -159.46875 C 17 -163.445312 18.414062 -166.851562 21.25 -169.6875 C 24.082031 -172.519531 27.644531 -173.9375 31.9375 -173.9375 C 36.226562 -173.9375 39.789062 -172.597656 42.625 -169.921875 C 45.457031 -167.242188 46.875 -163.910156 46.875 -159.921875 C 46.875 -155.785156 45.457031 -152.300781 42.625 -149.46875 C 39.789062 -146.632812 36.226562 -145.21875 31.9375 -145.21875 Z M 31.9375 -145.21875 "/></g></g></g><g fill="#000000" fill-opacity="1"><g transform="translate(1364.365825, 351.089604)"><g><path d="M 85.484375 -122.9375 C 97.273438 -122.9375 107.84375 -120.332031 117.1875 -115.125 C 126.53125 -109.914062 133.84375 -102.640625 139.125 -93.296875 C 144.414062 -83.953125 147.0625 -73.148438 147.0625 -60.890625 C 147.0625 -48.640625 144.414062 -37.800781 139.125 -28.375 C 133.84375 -18.957031 126.53125 -11.644531 117.1875 -6.4375 C 107.84375 -1.226562 97.273438 1.375 85.484375 1.375 C 76.441406 1.375 68.164062 -0.382812 60.65625 -3.90625 C 53.15625 -7.425781 46.953125 -12.554688 42.046875 -19.296875 L 42.046875 0 L 20.90625 0 L 20.90625 -170.5 L 42.96875 -170.5 L 42.96875 -103.40625 C 47.875 -109.832031 54 -114.691406 61.34375 -117.984375 C 68.695312 -121.285156 76.742188 -122.9375 85.484375 -122.9375 Z M 83.640625 -17.921875 C 91.453125 -17.921875 98.457031 -19.71875 104.65625 -23.3125 C 110.863281 -26.914062 115.765625 -31.972656 119.359375 -38.484375 C 122.960938 -44.992188 124.765625 -52.460938 124.765625 -60.890625 C 124.765625 -69.316406 122.960938 -76.785156 119.359375 -83.296875 C 115.765625 -89.804688 110.863281 -94.820312 104.65625 -98.34375 C 98.457031 -101.863281 91.453125 -103.625 83.640625 -103.625 C 75.984375 -103.625 69.015625 -101.863281 62.734375 -98.34375 C 56.453125 -94.820312 51.546875 -89.804688 48.015625 -83.296875 C 44.492188 -76.785156 42.734375 -69.316406 42.734375 -60.890625 C 42.734375 -52.460938 44.492188 -44.992188 48.015625 -38.484375 C 51.546875 -31.972656 56.453125 -26.914062 62.734375 -23.3125 C 69.015625 -19.71875 75.984375 -17.921875 83.640625 -17.921875 Z M 83.640625 -17.921875 "/></g></g></g><g fill="#000000" fill-opacity="1"><g transform="translate(1521.073329, 351.089604)"><g><path d="M 20.90625 -121.78125 L 42.96875 -121.78125 L 42.96875 0 L 20.90625 0 Z M 31.9375 -145.21875 C 27.644531 -145.21875 24.082031 -146.597656 21.25 -149.359375 C 18.414062 -152.117188 17 -155.488281 17 -159.46875 C 17 -163.445312 18.414062 -166.851562 21.25 -169.6875 C 24.082031 -172.519531 27.644531 -173.9375 31.9375 -173.9375 C 36.226562 -173.9375 39.789062 -172.597656 42.625 -169.921875 C 45.457031 -167.242188 46.875 -163.910156 46.875 -159.921875 C 46.875 -155.785156 45.457031 -152.300781 42.625 -149.46875 C 39.789062 -146.632812 36.226562 -145.21875 31.9375 -145.21875 Z M 31.9375 -145.21875 "/></g></g></g><g fill="#000000" fill-opacity="1"><g transform="translate(1585.180931, 351.089604)"><g><path d="M 65.265625 -122.9375 C 82.109375 -122.9375 95.007812 -118.796875 103.96875 -110.515625 C 112.9375 -102.242188 117.421875 -89.914062 117.421875 -73.53125 L 117.421875 0 L 96.515625 0 L 96.515625 -16.078125 C 92.835938 -10.410156 87.585938 -6.082031 80.765625 -3.09375 C 73.953125 -0.113281 65.875 1.375 56.53125 1.375 C 42.894531 1.375 31.976562 -1.914062 23.78125 -8.5 C 15.582031 -15.082031 11.484375 -23.738281 11.484375 -34.46875 C 11.484375 -45.1875 15.390625 -53.800781 23.203125 -60.3125 C 31.015625 -66.820312 43.425781 -70.078125 60.4375 -70.078125 L 95.359375 -70.078125 L 95.359375 -74.453125 C 95.359375 -83.953125 92.597656 -91.226562 87.078125 -96.28125 C 81.566406 -101.332031 73.453125 -103.859375 62.734375 -103.859375 C 55.535156 -103.859375 48.488281 -102.671875 41.59375 -100.296875 C 34.695312 -97.921875 28.875 -94.742188 24.125 -90.765625 L 14.9375 -107.3125 C 21.21875 -112.363281 28.722656 -116.226562 37.453125 -118.90625 C 46.179688 -121.59375 55.453125 -122.9375 65.265625 -122.9375 Z M 60.203125 -15.625 C 68.628906 -15.625 75.90625 -17.5 82.03125 -21.25 C 88.15625 -25.007812 92.597656 -30.332031 95.359375 -37.21875 L 95.359375 -54.234375 L 61.359375 -54.234375 C 42.660156 -54.234375 33.3125 -47.953125 33.3125 -35.390625 C 33.3125 -29.253906 35.6875 -24.425781 40.4375 -20.90625 C 45.1875 -17.382812 51.773438 -15.625 60.203125 -15.625 Z M 60.203125 -15.625 "/></g></g></g></svg>