<svg xmlns="http://www.w3.org/2000/svg" xmlns:xlink="http://www.w3.org/1999/xlink" width="2540" zoomAndPan="magnify" viewBox="0 0 1904.88 526.499984" height="702" preserveAspectRatio="xMidYMid meet" version="1.0"><defs><g/><clipPath id="7b999829f8"><path d="M 53.445312 95.484375 L 556.214844 95.484375 L 556.214844 430.417969 L 53.445312 430.417969 Z M 53.445312 95.484375 " clip-rule="nonzero"/></clipPath><clipPath id="3e27410f4b"><path d="M 53.445312 106.722656 L 53.445312 419.277344 C 53.445312 425.484375 58.476562 430.515625 64.683594 430.515625 L 545.066406 430.515625 C 551.273438 430.515625 556.304688 425.484375 556.304688 419.277344 L 556.304688 106.722656 C 556.304688 100.515625 551.273438 95.484375 545.066406 95.484375 L 64.683594 95.484375 C 58.476562 95.484375 53.445312 100.515625 53.445312 106.722656 Z M 53.445312 106.722656 " clip-rule="nonzero"/></clipPath><clipPath id="d0d94a3d16"><path d="M 53.445312 95.484375 L 222 95.484375 L 222 430.417969 L 53.445312 430.417969 Z M 53.445312 95.484375 " clip-rule="nonzero"/></clipPath><clipPath id="f096b553f8"><path d="M 53.445312 106.722656 L 53.445312 419.277344 C 53.445312 425.484375 58.476562 430.515625 64.683594 430.515625 L 545.066406 430.515625 C 551.273438 430.515625 556.304688 425.484375 556.304688 419.277344 L 556.304688 106.722656 C 556.304688 100.515625 551.273438 95.484375 545.066406 95.484375 L 64.683594 95.484375 C 58.476562 95.484375 53.445312 100.515625 53.445312 106.722656 Z M 53.445312 106.722656 " clip-rule="nonzero"/></clipPath><clipPath id="eb88f972bb"><path d="M 262 95.484375 L 556.214844 95.484375 L 556.214844 430.417969 L 262 430.417969 Z M 262 95.484375 " clip-rule="nonzero"/></clipPath><clipPath id="21634a7bb9"><path d="M 53.445312 106.722656 L 53.445312 419.277344 C 53.445312 425.484375 58.476562 430.515625 64.683594 430.515625 L 545.066406 430.515625 C 551.273438 430.515625 556.304688 425.484375 556.304688 419.277344 L 556.304688 106.722656 C 556.304688 100.515625 551.273438 95.484375 545.066406 95.484375 L 64.683594 95.484375 C 58.476562 95.484375 53.445312 100.515625 53.445312 106.722656 Z M 53.445312 106.722656 " clip-rule="nonzero"/></clipPath></defs><g clip-path="url(#7b999829f8)"><g clip-path="url(#3e27410f4b)"><path fill="#ce1126" d="M 53.601562 95.484375 L 556.058594 95.484375 L 556.058594 430.417969 L 53.601562 430.417969 Z M 53.601562 95.484375 " fill-opacity="1" fill-rule="evenodd"/></g></g><g clip-path="url(#d0d94a3d16)"><g clip-path="url(#f096b553f8)"><path fill="#007a5e" d="M 53.601562 95.484375 L 221.085938 95.484375 L 221.085938 430.417969 L 53.601562 430.417969 Z M 53.601562 95.484375 " fill-opacity="1" fill-rule="evenodd"/></g></g><g clip-path="url(#eb88f972bb)"><g clip-path="url(#21634a7bb9)"><path fill="#fcd116" d="M 388.574219 95.484375 L 556.058594 95.484375 L 556.058594 430.417969 L 388.574219 430.417969 Z M 304.828125 218.289062 L 314.8125 249.21875 L 347.304688 249.152344 L 320.976562 268.191406 L 331.074219 299.074219 L 304.828125 279.929688 L 278.585938 299.074219 L 288.683594 268.191406 L 262.355469 249.152344 L 294.847656 249.21875 Z M 304.828125 218.289062 " fill-opacity="1" fill-rule="evenodd"/></g></g><g fill="#000000" fill-opacity="1"><g transform="translate(617.791319, 345.047295)"><g><path d="M 96.046875 1.84375 C 79.960938 1.84375 65.445312 -1.71875 52.5 -8.84375 C 39.5625 -15.96875 29.414062 -25.769531 22.0625 -38.25 C 14.707031 -50.738281 11.03125 -64.796875 11.03125 -80.421875 C 11.03125 -96.046875 14.707031 -110.097656 22.0625 -122.578125 C 29.414062 -135.066406 39.601562 -144.875 52.625 -152 C 65.644531 -159.125 80.195312 -162.6875 96.28125 -162.6875 C 108.84375 -162.6875 120.332031 -160.578125 130.75 -156.359375 C 141.164062 -152.148438 150.050781 -145.910156 157.40625 -137.640625 L 142.46875 -123.15625 C 130.363281 -135.875 115.273438 -142.234375 97.203125 -142.234375 C 85.253906 -142.234375 74.453125 -139.550781 64.796875 -134.1875 C 55.148438 -128.832031 47.601562 -121.441406 42.15625 -112.015625 C 36.71875 -102.597656 34 -92.066406 34 -80.421875 C 34 -68.773438 36.71875 -58.242188 42.15625 -48.828125 C 47.601562 -39.410156 55.148438 -32.019531 64.796875 -26.65625 C 74.453125 -21.289062 85.253906 -18.609375 97.203125 -18.609375 C 115.117188 -18.609375 130.207031 -25.039062 142.46875 -37.90625 L 157.40625 -23.4375 C 150.050781 -15.164062 141.125 -8.882812 130.625 -4.59375 C 120.132812 -0.300781 108.609375 1.84375 96.046875 1.84375 Z M 96.046875 1.84375 "/></g></g></g><g fill="#000000" fill-opacity="1"><g transform="translate(782.311226, 345.047295)"><g><path d="M 65.265625 -122.9375 C 82.109375 -122.9375 95.007812 -118.796875 103.96875 -110.515625 C 112.9375 -102.242188 117.421875 -89.914062 117.421875 -73.53125 L 117.421875 0 L 96.515625 0 L 96.515625 -16.078125 C 92.835938 -10.410156 87.585938 -6.082031 80.765625 -3.09375 C 73.953125 -0.113281 65.875 1.375 56.53125 1.375 C 42.894531 1.375 31.976562 -1.914062 23.78125 -8.5 C 15.582031 -15.082031 11.484375 -23.738281 11.484375 -34.46875 C 11.484375 -45.1875 15.390625 -53.800781 23.203125 -60.3125 C 31.015625 -66.820312 43.425781 -70.078125 60.4375 -70.078125 L 95.359375 -70.078125 L 95.359375 -74.453125 C 95.359375 -83.953125 92.597656 -91.226562 87.078125 -96.28125 C 81.566406 -101.332031 73.453125 -103.859375 62.734375 -103.859375 C 55.535156 -103.859375 48.488281 -102.671875 41.59375 -100.296875 C 34.695312 -97.921875 28.875 -94.742188 24.125 -90.765625 L 14.9375 -107.3125 C 21.21875 -112.363281 28.722656 -116.226562 37.453125 -118.90625 C 46.179688 -121.59375 55.453125 -122.9375 65.265625 -122.9375 Z M 60.203125 -15.625 C 68.628906 -15.625 75.90625 -17.5 82.03125 -21.25 C 88.15625 -25.007812 92.597656 -30.332031 95.359375 -37.21875 L 95.359375 -54.234375 L 61.359375 -54.234375 C 42.660156 -54.234375 33.3125 -47.953125 33.3125 -35.390625 C 33.3125 -29.253906 35.6875 -24.425781 40.4375 -20.90625 C 45.1875 -17.382812 51.773438 -15.625 60.203125 -15.625 Z M 60.203125 -15.625 "/></g></g></g><g fill="#000000" fill-opacity="1"><g transform="translate(919.717541, 345.047295)"><g><path d="M 173.25 -122.9375 C 188.570312 -122.9375 200.710938 -118.492188 209.671875 -109.609375 C 218.640625 -100.722656 223.125 -87.546875 223.125 -70.078125 L 223.125 0 L 201.0625 0 L 201.0625 -67.5625 C 201.0625 -79.351562 198.34375 -88.234375 192.90625 -94.203125 C 187.46875 -100.179688 179.691406 -103.171875 169.578125 -103.171875 C 158.390625 -103.171875 149.503906 -99.6875 142.921875 -92.71875 C 136.335938 -85.75 133.046875 -75.753906 133.046875 -62.734375 L 133.046875 0 L 110.984375 0 L 110.984375 -67.5625 C 110.984375 -79.351562 108.265625 -88.234375 102.828125 -94.203125 C 97.390625 -100.179688 89.613281 -103.171875 79.5 -103.171875 C 68.320312 -103.171875 59.4375 -99.6875 52.84375 -92.71875 C 46.257812 -85.75 42.96875 -75.753906 42.96875 -62.734375 L 42.96875 0 L 20.90625 0 L 20.90625 -121.78125 L 42.046875 -121.78125 L 42.046875 -103.625 C 46.492188 -109.90625 52.316406 -114.691406 59.515625 -117.984375 C 66.710938 -121.285156 74.90625 -122.9375 84.09375 -122.9375 C 93.59375 -122.9375 102.019531 -121.019531 109.375 -117.1875 C 116.726562 -113.351562 122.394531 -107.765625 126.375 -100.421875 C 130.96875 -107.460938 137.363281 -112.972656 145.5625 -116.953125 C 153.757812 -120.941406 162.988281 -122.9375 173.25 -122.9375 Z M 173.25 -122.9375 "/></g></g></g><g fill="#000000" fill-opacity="1"><g transform="translate(1163.280529, 345.047295)"><g><path d="M 130.96875 -60.203125 C 130.96875 -58.515625 130.816406 -56.289062 130.515625 -53.53125 L 31.703125 -53.53125 C 33.085938 -42.8125 37.800781 -34.195312 45.84375 -27.6875 C 53.882812 -21.175781 63.878906 -17.921875 75.828125 -17.921875 C 90.378906 -17.921875 102.097656 -22.820312 110.984375 -32.625 L 123.15625 -18.375 C 117.644531 -11.945312 110.789062 -7.046875 102.59375 -3.671875 C 94.394531 -0.304688 85.242188 1.375 75.140625 1.375 C 62.273438 1.375 50.863281 -1.265625 40.90625 -6.546875 C 30.945312 -11.828125 23.25 -19.21875 17.8125 -28.71875 C 12.375 -38.21875 9.65625 -48.941406 9.65625 -60.890625 C 9.65625 -72.679688 12.296875 -83.328125 17.578125 -92.828125 C 22.859375 -102.328125 30.132812 -109.71875 39.40625 -115 C 48.675781 -120.289062 59.128906 -122.9375 70.765625 -122.9375 C 82.410156 -122.9375 92.789062 -120.289062 101.90625 -115 C 111.019531 -109.71875 118.140625 -102.328125 123.265625 -92.828125 C 128.398438 -83.328125 130.96875 -72.453125 130.96875 -60.203125 Z M 70.765625 -104.328125 C 60.203125 -104.328125 51.359375 -101.109375 44.234375 -94.671875 C 37.109375 -88.234375 32.929688 -79.804688 31.703125 -69.390625 L 109.828125 -69.390625 C 108.609375 -79.660156 104.4375 -88.050781 97.3125 -94.5625 C 90.1875 -101.070312 81.335938 -104.328125 70.765625 -104.328125 Z M 70.765625 -104.328125 "/></g></g></g><g fill="#000000" fill-opacity="1"><g transform="translate(1303.903674, 345.047295)"><g><path d="M 42.046875 -101.328125 C 45.878906 -108.378906 51.546875 -113.742188 59.046875 -117.421875 C 66.554688 -121.097656 75.671875 -122.9375 86.390625 -122.9375 L 86.390625 -101.5625 C 85.171875 -101.71875 83.488281 -101.796875 81.34375 -101.796875 C 69.394531 -101.796875 60.007812 -98.234375 53.1875 -91.109375 C 46.375 -83.984375 42.96875 -73.832031 42.96875 -60.65625 L 42.96875 0 L 20.90625 0 L 20.90625 -121.78125 L 42.046875 -121.78125 Z M 42.046875 -101.328125 "/></g></g></g><g fill="#000000" fill-opacity="1"><g transform="translate(1395.354722, 345.047295)"><g><path d="M 73.078125 1.375 C 60.972656 1.375 50.09375 -1.300781 40.4375 -6.65625 C 30.789062 -12.019531 23.25 -19.410156 17.8125 -28.828125 C 12.375 -38.253906 9.65625 -48.941406 9.65625 -60.890625 C 9.65625 -72.835938 12.375 -83.519531 17.8125 -92.9375 C 23.25 -102.363281 30.789062 -109.71875 40.4375 -115 C 50.09375 -120.289062 60.972656 -122.9375 73.078125 -122.9375 C 85.171875 -122.9375 96.003906 -120.289062 105.578125 -115 C 115.160156 -109.71875 122.671875 -102.363281 128.109375 -92.9375 C 133.546875 -83.519531 136.265625 -72.835938 136.265625 -60.890625 C 136.265625 -48.941406 133.546875 -38.253906 128.109375 -28.828125 C 122.671875 -19.410156 115.160156 -12.019531 105.578125 -6.65625 C 96.003906 -1.300781 85.171875 1.375 73.078125 1.375 Z M 73.078125 -17.921875 C 80.890625 -17.921875 87.894531 -19.71875 94.09375 -23.3125 C 100.300781 -26.914062 105.164062 -31.972656 108.6875 -38.484375 C 112.207031 -44.992188 113.96875 -52.460938 113.96875 -60.890625 C 113.96875 -69.316406 112.207031 -76.785156 108.6875 -83.296875 C 105.164062 -89.804688 100.300781 -94.820312 94.09375 -98.34375 C 87.894531 -101.863281 80.890625 -103.625 73.078125 -103.625 C 65.265625 -103.625 58.253906 -101.863281 52.046875 -98.34375 C 45.835938 -94.820312 40.929688 -89.804688 37.328125 -83.296875 C 33.734375 -76.785156 31.9375 -69.316406 31.9375 -60.890625 C 31.9375 -52.460938 33.734375 -44.992188 37.328125 -38.484375 C 40.929688 -31.972656 45.835938 -26.914062 52.046875 -23.3125 C 58.253906 -19.71875 65.265625 -17.921875 73.078125 -17.921875 Z M 73.078125 -17.921875 "/></g></g></g><g fill="#000000" fill-opacity="1"><g transform="translate(1541.262718, 345.047295)"><g><path d="M 73.078125 1.375 C 60.972656 1.375 50.09375 -1.300781 40.4375 -6.65625 C 30.789062 -12.019531 23.25 -19.410156 17.8125 -28.828125 C 12.375 -38.253906 9.65625 -48.941406 9.65625 -60.890625 C 9.65625 -72.835938 12.375 -83.519531 17.8125 -92.9375 C 23.25 -102.363281 30.789062 -109.71875 40.4375 -115 C 50.09375 -120.289062 60.972656 -122.9375 73.078125 -122.9375 C 85.171875 -122.9375 96.003906 -120.289062 105.578125 -115 C 115.160156 -109.71875 122.671875 -102.363281 128.109375 -92.9375 C 133.546875 -83.519531 136.265625 -72.835938 136.265625 -60.890625 C 136.265625 -48.941406 133.546875 -38.253906 128.109375 -28.828125 C 122.671875 -19.410156 115.160156 -12.019531 105.578125 -6.65625 C 96.003906 -1.300781 85.171875 1.375 73.078125 1.375 Z M 73.078125 -17.921875 C 80.890625 -17.921875 87.894531 -19.71875 94.09375 -23.3125 C 100.300781 -26.914062 105.164062 -31.972656 108.6875 -38.484375 C 112.207031 -44.992188 113.96875 -52.460938 113.96875 -60.890625 C 113.96875 -69.316406 112.207031 -76.785156 108.6875 -83.296875 C 105.164062 -89.804688 100.300781 -94.820312 94.09375 -98.34375 C 87.894531 -101.863281 80.890625 -103.625 73.078125 -103.625 C 65.265625 -103.625 58.253906 -101.863281 52.046875 -98.34375 C 45.835938 -94.820312 40.929688 -89.804688 37.328125 -83.296875 C 33.734375 -76.785156 31.9375 -69.316406 31.9375 -60.890625 C 31.9375 -52.460938 33.734375 -44.992188 37.328125 -38.484375 C 40.929688 -31.972656 45.835938 -26.914062 52.046875 -23.3125 C 58.253906 -19.71875 65.265625 -17.921875 73.078125 -17.921875 Z M 73.078125 -17.921875 "/></g></g></g><g fill="#000000" fill-opacity="1"><g transform="translate(1687.170713, 345.047295)"><g><path d="M 85.9375 -122.9375 C 101.40625 -122.9375 113.695312 -118.453125 122.8125 -109.484375 C 131.925781 -100.523438 136.484375 -87.390625 136.484375 -70.078125 L 136.484375 0 L 114.4375 0 L 114.4375 -67.5625 C 114.4375 -79.351562 111.597656 -88.234375 105.921875 -94.203125 C 100.253906 -100.179688 92.140625 -103.171875 81.578125 -103.171875 C 69.628906 -103.171875 60.207031 -99.6875 53.3125 -92.71875 C 46.414062 -85.75 42.96875 -75.753906 42.96875 -62.734375 L 42.96875 0 L 20.90625 0 L 20.90625 -121.78125 L 42.046875 -121.78125 L 42.046875 -103.40625 C 46.492188 -109.6875 52.507812 -114.507812 60.09375 -117.875 C 67.675781 -121.25 76.289062 -122.9375 85.9375 -122.9375 Z M 85.9375 -122.9375 "/></g></g></g></svg>