<svg xmlns="http://www.w3.org/2000/svg" xmlns:xlink="http://www.w3.org/1999/xlink" width="2540" zoomAndPan="magnify" viewBox="0 0 1904.88 526.499984" height="702" preserveAspectRatio="xMidYMid meet" version="1.0"><defs><g/><clipPath id="6b976bbc07"><path d="M 165.074219 102.359375 L 332 102.359375 L 332 437 L 165.074219 437 Z M 165.074219 102.359375 " clip-rule="nonzero"/></clipPath><clipPath id="b3f20645bb"><path d="M 165.074219 113.597656 L 165.074219 426.152344 C 165.074219 432.359375 170.109375 437.390625 176.316406 437.390625 L 653.882812 437.390625 C 660.089844 437.390625 665.125 432.359375 665.125 426.152344 L 665.125 113.597656 C 665.125 107.390625 660.089844 102.359375 653.882812 102.359375 L 176.316406 102.359375 C 170.109375 102.359375 165.074219 107.390625 165.074219 113.597656 Z M 165.074219 113.597656 " clip-rule="nonzero"/></clipPath><clipPath id="fcd63ed3e0"><path d="M 331 102.359375 L 499 102.359375 L 499 437 L 331 437 Z M 331 102.359375 " clip-rule="nonzero"/></clipPath><clipPath id="4777d90614"><path d="M 165.074219 113.597656 L 165.074219 426.152344 C 165.074219 432.359375 170.109375 437.390625 176.316406 437.390625 L 653.882812 437.390625 C 660.089844 437.390625 665.125 432.359375 665.125 426.152344 L 665.125 113.597656 C 665.125 107.390625 660.089844 102.359375 653.882812 102.359375 L 176.316406 102.359375 C 170.109375 102.359375 165.074219 107.390625 165.074219 113.597656 Z M 165.074219 113.597656 " clip-rule="nonzero"/></clipPath><clipPath id="de805f46e0"><path d="M 498 102.359375 L 664.851562 102.359375 L 664.851562 437 L 498 437 Z M 498 102.359375 " clip-rule="nonzero"/></clipPath><clipPath id="601b2a3e36"><path d="M 165.074219 113.597656 L 165.074219 426.152344 C 165.074219 432.359375 170.109375 437.390625 176.316406 437.390625 L 653.882812 437.390625 C 660.089844 437.390625 665.125 432.359375 665.125 426.152344 L 665.125 113.597656 C 665.125 107.390625 660.089844 102.359375 653.882812 102.359375 L 176.316406 102.359375 C 170.109375 102.359375 165.074219 107.390625 165.074219 113.597656 Z M 165.074219 113.597656 " clip-rule="nonzero"/></clipPath></defs><g clip-path="url(#6b976bbc07)"><g clip-path="url(#b3f20645bb)"><path fill="#278848" d="M 331.660156 436.203125 L 165.074219 436.203125 L 165.074219 102.949219 L 331.660156 102.949219 L 331.660156 436.203125 " fill-opacity="1" fill-rule="nonzero"/></g></g><g clip-path="url(#fcd63ed3e0)"><g clip-path="url(#4777d90614)"><path fill="#ffffff" d="M 498.265625 436.203125 L 331.660156 436.203125 L 331.660156 102.949219 L 498.265625 102.949219 L 498.265625 436.203125 " fill-opacity="1" fill-rule="nonzero"/></g></g><g clip-path="url(#de805f46e0)"><g clip-path="url(#601b2a3e36)"><path fill="#278848" d="M 664.851562 436.203125 L 498.265625 436.203125 L 498.265625 102.949219 L 664.851562 102.949219 L 664.851562 436.203125 " fill-opacity="1" fill-rule="nonzero"/></g></g><g fill="#000000" fill-opacity="1"><g transform="translate(742.68629, 345.047295)"><g><path d="M 162.453125 -160.84375 L 162.453125 0 L 143.609375 0 L 47.109375 -119.953125 L 47.109375 0 L 24.125 0 L 24.125 -160.84375 L 42.96875 -160.84375 L 139.484375 -40.90625 L 139.484375 -160.84375 Z M 162.453125 -160.84375 "/></g></g></g><g fill="#000000" fill-opacity="1"><g transform="translate(929.264707, 345.047295)"><g><path d="M 20.90625 -121.78125 L 42.96875 -121.78125 L 42.96875 0 L 20.90625 0 Z M 31.9375 -145.21875 C 27.644531 -145.21875 24.082031 -146.597656 21.25 -149.359375 C 18.414062 -152.117188 17 -155.488281 17 -159.46875 C 17 -163.445312 18.414062 -166.851562 21.25 -169.6875 C 24.082031 -172.519531 27.644531 -173.9375 31.9375 -173.9375 C 36.226562 -173.9375 39.789062 -172.597656 42.625 -169.921875 C 45.457031 -167.242188 46.875 -163.910156 46.875 -159.921875 C 46.875 -155.785156 45.457031 -152.300781 42.625 -149.46875 C 39.789062 -146.632812 36.226562 -145.21875 31.9375 -145.21875 Z M 31.9375 -145.21875 "/></g></g></g><g fill="#000000" fill-opacity="1"><g transform="translate(993.372321, 345.047295)"><g><path d="M 137.40625 -121.78125 L 137.40625 -16.546875 C 137.40625 4.742188 132.117188 20.484375 121.546875 30.671875 C 110.984375 40.859375 95.207031 45.953125 74.21875 45.953125 C 62.726562 45.953125 51.773438 44.378906 41.359375 41.234375 C 30.941406 38.097656 22.515625 33.617188 16.078125 27.796875 L 26.65625 10.796875 C 32.320312 15.703125 39.328125 19.570312 47.671875 22.40625 C 56.023438 25.238281 64.644531 26.65625 73.53125 26.65625 C 87.78125 26.65625 98.3125 23.285156 105.125 16.546875 C 111.9375 9.804688 115.34375 -0.457031 115.34375 -14.25 L 115.34375 -23.890625 C 110.132812 -17.609375 103.738281 -12.898438 96.15625 -9.765625 C 88.582031 -6.628906 80.351562 -5.0625 71.46875 -5.0625 C 59.820312 -5.0625 49.285156 -7.546875 39.859375 -12.515625 C 30.441406 -17.492188 23.050781 -24.460938 17.6875 -33.421875 C 12.332031 -42.390625 9.65625 -52.617188 9.65625 -64.109375 C 9.65625 -75.597656 12.332031 -85.820312 17.6875 -94.78125 C 23.050781 -103.75 30.441406 -110.679688 39.859375 -115.578125 C 49.285156 -120.484375 59.820312 -122.9375 71.46875 -122.9375 C 80.65625 -122.9375 89.191406 -121.25 97.078125 -117.875 C 104.972656 -114.507812 111.445312 -109.53125 116.5 -102.9375 L 116.5 -121.78125 Z M 73.984375 -24.359375 C 81.953125 -24.359375 89.113281 -26.039062 95.46875 -29.40625 C 101.832031 -32.78125 106.8125 -37.492188 110.40625 -43.546875 C 114.007812 -49.597656 115.8125 -56.453125 115.8125 -64.109375 C 115.8125 -75.898438 111.90625 -85.429688 104.09375 -92.703125 C 96.28125 -99.984375 86.242188 -103.625 73.984375 -103.625 C 61.578125 -103.625 51.46875 -99.984375 43.65625 -92.703125 C 35.84375 -85.429688 31.9375 -75.898438 31.9375 -64.109375 C 31.9375 -56.453125 33.734375 -49.597656 37.328125 -43.546875 C 40.929688 -37.492188 45.910156 -32.78125 52.265625 -29.40625 C 58.628906 -26.039062 65.867188 -24.359375 73.984375 -24.359375 Z M 73.984375 -24.359375 "/></g></g></g><g fill="#000000" fill-opacity="1"><g transform="translate(1151.918016, 345.047295)"><g><path d="M 130.96875 -60.203125 C 130.96875 -58.515625 130.816406 -56.289062 130.515625 -53.53125 L 31.703125 -53.53125 C 33.085938 -42.8125 37.800781 -34.195312 45.84375 -27.6875 C 53.882812 -21.175781 63.878906 -17.921875 75.828125 -17.921875 C 90.378906 -17.921875 102.097656 -22.820312 110.984375 -32.625 L 123.15625 -18.375 C 117.644531 -11.945312 110.789062 -7.046875 102.59375 -3.671875 C 94.394531 -0.304688 85.242188 1.375 75.140625 1.375 C 62.273438 1.375 50.863281 -1.265625 40.90625 -6.546875 C 30.945312 -11.828125 23.25 -19.21875 17.8125 -28.71875 C 12.375 -38.21875 9.65625 -48.941406 9.65625 -60.890625 C 9.65625 -72.679688 12.296875 -83.328125 17.578125 -92.828125 C 22.859375 -102.328125 30.132812 -109.71875 39.40625 -115 C 48.675781 -120.289062 59.128906 -122.9375 70.765625 -122.9375 C 82.410156 -122.9375 92.789062 -120.289062 101.90625 -115 C 111.019531 -109.71875 118.140625 -102.328125 123.265625 -92.828125 C 128.398438 -83.328125 130.96875 -72.453125 130.96875 -60.203125 Z M 70.765625 -104.328125 C 60.203125 -104.328125 51.359375 -101.109375 44.234375 -94.671875 C 37.109375 -88.234375 32.929688 -79.804688 31.703125 -69.390625 L 109.828125 -69.390625 C 108.609375 -79.660156 104.4375 -88.050781 97.3125 -94.5625 C 90.1875 -101.070312 81.335938 -104.328125 70.765625 -104.328125 Z M 70.765625 -104.328125 "/></g></g></g><g fill="#000000" fill-opacity="1"><g transform="translate(1292.541206, 345.047295)"><g><path d="M 42.046875 -101.328125 C 45.878906 -108.378906 51.546875 -113.742188 59.046875 -117.421875 C 66.554688 -121.097656 75.671875 -122.9375 86.390625 -122.9375 L 86.390625 -101.5625 C 85.171875 -101.71875 83.488281 -101.796875 81.34375 -101.796875 C 69.394531 -101.796875 60.007812 -98.234375 53.1875 -91.109375 C 46.375 -83.984375 42.96875 -73.832031 42.96875 -60.65625 L 42.96875 0 L 20.90625 0 L 20.90625 -121.78125 L 42.046875 -121.78125 Z M 42.046875 -101.328125 "/></g></g></g><g fill="#000000" fill-opacity="1"><g transform="translate(1385.141065, 345.047295)"><g><path d="M 20.90625 -121.78125 L 42.96875 -121.78125 L 42.96875 0 L 20.90625 0 Z M 31.9375 -145.21875 C 27.644531 -145.21875 24.082031 -146.597656 21.25 -149.359375 C 18.414062 -152.117188 17 -155.488281 17 -159.46875 C 17 -163.445312 18.414062 -166.851562 21.25 -169.6875 C 24.082031 -172.519531 27.644531 -173.9375 31.9375 -173.9375 C 36.226562 -173.9375 39.789062 -172.597656 42.625 -169.921875 C 45.457031 -167.242188 46.875 -163.910156 46.875 -159.921875 C 46.875 -155.785156 45.457031 -152.300781 42.625 -149.46875 C 39.789062 -146.632812 36.226562 -145.21875 31.9375 -145.21875 Z M 31.9375 -145.21875 "/></g></g></g><g fill="#000000" fill-opacity="1"><g transform="translate(1449.248713, 345.047295)"><g><path d="M 65.265625 -122.9375 C 82.109375 -122.9375 95.007812 -118.796875 103.96875 -110.515625 C 112.9375 -102.242188 117.421875 -89.914062 117.421875 -73.53125 L 117.421875 0 L 96.515625 0 L 96.515625 -16.078125 C 92.835938 -10.410156 87.585938 -6.082031 80.765625 -3.09375 C 73.953125 -0.113281 65.875 1.375 56.53125 1.375 C 42.894531 1.375 31.976562 -1.914062 23.78125 -8.5 C 15.582031 -15.082031 11.484375 -23.738281 11.484375 -34.46875 C 11.484375 -45.1875 15.390625 -53.800781 23.203125 -60.3125 C 31.015625 -66.820312 43.425781 -70.078125 60.4375 -70.078125 L 95.359375 -70.078125 L 95.359375 -74.453125 C 95.359375 -83.953125 92.597656 -91.226562 87.078125 -96.28125 C 81.566406 -101.332031 73.453125 -103.859375 62.734375 -103.859375 C 55.535156 -103.859375 48.488281 -102.671875 41.59375 -100.296875 C 34.695312 -97.921875 28.875 -94.742188 24.125 -90.765625 L 14.9375 -107.3125 C 21.21875 -112.363281 28.722656 -116.226562 37.453125 -118.90625 C 46.179688 -121.59375 55.453125 -122.9375 65.265625 -122.9375 Z M 60.203125 -15.625 C 68.628906 -15.625 75.90625 -17.5 82.03125 -21.25 C 88.15625 -25.007812 92.597656 -30.332031 95.359375 -37.21875 L 95.359375 -54.234375 L 61.359375 -54.234375 C 42.660156 -54.234375 33.3125 -47.953125 33.3125 -35.390625 C 33.3125 -29.253906 35.6875 -24.425781 40.4375 -20.90625 C 45.1875 -17.382812 51.773438 -15.625 60.203125 -15.625 Z M 60.203125 -15.625 "/></g></g></g></svg>