<svg xmlns="http://www.w3.org/2000/svg" xmlns:xlink="http://www.w3.org/1999/xlink" width="160" zoomAndPan="magnify" viewBox="0 0 120 30.000001" height="40" preserveAspectRatio="xMidYMid meet" version="1.0"><defs><clipPath id="69025c5198"><path d="M 31 2 L 43 2 L 43 25.789062 L 31 25.789062 Z M 31 2 " clip-rule="nonzero"/></clipPath><clipPath id="0d30b95d5a"><path d="M 43 8 L 62 8 L 62 25.789062 L 43 25.789062 Z M 43 8 " clip-rule="nonzero"/></clipPath><clipPath id="3d36f18359"><path d="M 64 2 L 69 2 L 69 25.789062 L 64 25.789062 Z M 64 2 " clip-rule="nonzero"/></clipPath><clipPath id="a1040ddeba"><path d="M 71 8 L 89 8 L 89 25.789062 L 71 25.789062 Z M 71 8 " clip-rule="nonzero"/></clipPath><clipPath id="8d93fb28eb"><path d="M 90 2 L 110 2 L 110 25.789062 L 90 25.789062 Z M 90 2 " clip-rule="nonzero"/></clipPath><clipPath id="832ce22090"><path d="M 111 2 L 116.613281 2 L 116.613281 7 L 111 7 Z M 111 2 " clip-rule="nonzero"/></clipPath><clipPath id="4406ae80fc"><path d="M 112 8 L 116.613281 8 L 116.613281 25.789062 L 112 25.789062 Z M 112 8 " clip-rule="nonzero"/></clipPath><clipPath id="0d45b3a50b"><path d="M 3.386719 8 L 16 8 L 16 20 L 3.386719 20 Z M 3.386719 8 " clip-rule="nonzero"/></clipPath><clipPath id="e09198491a"><path d="M 3.386719 20 L 30 20 L 30 25.789062 L 3.386719 25.789062 Z M 3.386719 20 " clip-rule="nonzero"/></clipPath><clipPath id="e19b6dc779"><path d="M 10 1.835938 L 23 1.835938 L 23 13 L 10 13 Z M 10 1.835938 " clip-rule="nonzero"/></clipPath></defs><g clip-path="url(#69025c5198)"><path fill="#ffffff" d="M 34.578125 25.230469 L 34.578125 12.078125 L 31.53125 12.078125 L 31.53125 8.929688 L 34.597656 8.929688 L 34.597656 5.75 C 34.597656 4.609375 34.902344 3.765625 35.507812 3.226562 C 36.117188 2.6875 36.960938 2.410156 38.050781 2.410156 L 42.667969 2.410156 L 42.667969 5.558594 L 38.566406 5.558594 L 38.566406 8.929688 L 42.339844 8.929688 L 42.339844 12.078125 L 38.617188 12.078125 L 38.617188 25.230469 L 34.570312 25.230469 Z M 34.578125 25.230469 " fill-opacity="1" fill-rule="nonzero"/></g><g clip-path="url(#0d30b95d5a)"><path fill="#ffffff" d="M 52.511719 25.554688 C 50.75 25.554688 49.230469 25.207031 47.933594 24.507812 C 46.636719 23.8125 45.632812 22.828125 44.917969 21.5625 C 44.199219 20.292969 43.84375 18.800781 43.84375 17.082031 C 43.84375 15.359375 44.203125 13.839844 44.917969 12.570312 C 45.632812 11.300781 46.640625 10.324219 47.945312 9.636719 C 49.246094 8.945312 50.769531 8.605469 52.503906 8.605469 C 54.242188 8.605469 55.804688 8.953125 57.085938 9.636719 C 58.363281 10.324219 59.355469 11.300781 60.0625 12.570312 C 60.765625 13.839844 61.121094 15.34375 61.121094 17.082031 C 61.121094 18.816406 60.765625 20.300781 60.0625 21.578125 C 59.355469 22.859375 58.359375 23.835938 57.074219 24.523438 C 55.789062 25.214844 54.265625 25.554688 52.511719 25.554688 Z M 52.511719 22.023438 C 53.957031 22.023438 55.082031 21.585938 55.882812 20.703125 C 56.679688 19.824219 57.078125 18.613281 57.078125 17.074219 C 57.078125 15.535156 56.679688 14.300781 55.882812 13.433594 C 55.082031 12.566406 53.957031 12.128906 52.511719 12.128906 C 51.0625 12.128906 49.90625 12.566406 49.101562 13.433594 C 48.296875 14.300781 47.890625 15.503906 47.890625 17.046875 C 47.890625 18.585938 48.296875 19.824219 49.101562 20.699219 C 49.90625 21.578125 51.046875 22.019531 52.511719 22.019531 Z M 52.511719 22.023438 " fill-opacity="1" fill-rule="nonzero"/></g><g clip-path="url(#3d36f18359)"><path fill="#ffffff" d="M 64.164062 2.410156 L 68.210938 2.410156 L 68.210938 25.230469 L 64.164062 25.230469 Z M 64.164062 2.410156 " fill-opacity="1" fill-rule="nonzero"/></g><g clip-path="url(#a1040ddeba)"><path fill="#ffffff" d="M 77.289062 25.53125 C 75.386719 25.53125 73.898438 25.070312 72.820312 24.148438 C 71.742188 23.226562 71.207031 22 71.207031 20.476562 C 71.207031 18.957031 71.753906 17.652344 72.847656 16.785156 C 73.945312 15.917969 75.523438 15.480469 77.589844 15.480469 L 82.5625 15.480469 L 82.5625 14.828125 C 82.5625 12.835938 81.40625 11.839844 79.085938 11.839844 C 77.128906 11.839844 75.941406 12.546875 75.523438 13.960938 L 71.476562 13.960938 C 71.800781 12.222656 72.625 10.890625 73.9375 9.984375 C 75.25 9.066406 76.964844 8.609375 79.085938 8.609375 C 81.476562 8.609375 83.292969 9.148438 84.542969 10.226562 C 85.792969 11.300781 86.417969 12.878906 86.417969 14.9375 L 86.417969 21.183594 L 88.347656 21.183594 L 88.347656 25.230469 L 84.191406 25.230469 L 84.191406 22.621094 L 83.050781 22.621094 C 82.488281 23.546875 81.730469 24.257812 80.78125 24.769531 C 79.832031 25.277344 78.667969 25.527344 77.289062 25.527344 Z M 77.886719 22.40625 C 78.773438 22.40625 79.570312 22.238281 80.277344 21.902344 C 80.984375 21.566406 81.539062 21.117188 81.949219 20.542969 C 82.359375 19.96875 82.5625 19.332031 82.5625 18.625 L 82.5625 18.242188 L 77.8125 18.242188 C 75.980469 18.242188 75.066406 18.921875 75.066406 20.28125 C 75.066406 20.953125 75.316406 21.472656 75.8125 21.84375 C 76.3125 22.214844 77.007812 22.402344 77.890625 22.402344 Z M 77.886719 22.40625 " fill-opacity="1" fill-rule="nonzero"/></g><g clip-path="url(#8d93fb28eb)"><path fill="#ffffff" d="M 101.414062 25.554688 C 100.054688 25.554688 98.894531 25.300781 97.933594 24.796875 C 96.972656 24.289062 96.214844 23.5625 95.652344 22.625 L 94.511719 22.625 L 94.511719 25.238281 L 90.355469 25.238281 L 90.355469 21.191406 L 92.363281 21.191406 L 92.363281 2.410156 L 96.410156 2.410156 L 96.410156 11.296875 L 96.523438 11.296875 C 97.007812 10.429688 97.695312 9.761719 98.589844 9.300781 C 99.472656 8.835938 100.535156 8.605469 101.765625 8.605469 C 103.324219 8.605469 104.65625 8.953125 105.761719 9.652344 C 106.867188 10.351562 107.710938 11.332031 108.304688 12.597656 C 108.894531 13.867188 109.1875 15.359375 109.1875 17.082031 C 109.1875 18.800781 108.886719 20.269531 108.292969 21.550781 C 107.695312 22.828125 106.820312 23.8125 105.667969 24.507812 C 104.515625 25.207031 103.097656 25.554688 101.417969 25.554688 Z M 100.679688 22.054688 C 102.144531 22.054688 103.253906 21.613281 104.007812 20.734375 C 104.761719 19.851562 105.136719 18.636719 105.136719 17.082031 C 105.136719 15.523438 104.761719 14.308594 104.007812 13.425781 C 103.253906 12.546875 102.148438 12.105469 100.679688 12.105469 C 99.394531 12.105469 98.355469 12.472656 97.582031 13.207031 C 96.800781 13.941406 96.410156 14.945312 96.410156 16.210938 L 96.410156 17.949219 C 96.410156 19.214844 96.800781 20.21875 97.582031 20.953125 C 98.355469 21.6875 99.394531 22.054688 100.679688 22.054688 Z M 100.679688 22.054688 " fill-opacity="1" fill-rule="nonzero"/></g><g clip-path="url(#832ce22090)"><path fill="#f28a1a" d="M 114.238281 6.984375 C 113.601562 6.984375 113.0625 6.769531 112.621094 6.339844 C 112.183594 5.914062 111.957031 5.390625 111.957031 4.777344 C 111.957031 4.164062 112.175781 3.644531 112.621094 3.214844 C 113.066406 2.785156 113.605469 2.570312 114.238281 2.570312 C 114.867188 2.570312 115.414062 2.785156 115.851562 3.214844 C 116.296875 3.644531 116.519531 4.164062 116.519531 4.777344 C 116.519531 5.390625 116.296875 5.914062 115.851562 6.339844 C 115.40625 6.769531 114.867188 6.984375 114.238281 6.984375 Z M 114.238281 6.984375 " fill-opacity="1" fill-rule="nonzero"/></g><g clip-path="url(#4406ae80fc)"><path fill="#ffffff" d="M 112.226562 8.929688 L 116.273438 8.929688 L 116.273438 25.230469 L 112.226562 25.230469 Z M 112.226562 8.929688 " fill-opacity="1" fill-rule="nonzero"/></g><path fill="#f28a1a" d="M 21.359375 9.519531 L 17.710938 15.835938 C 16.820312 17.382812 17.933594 19.308594 19.714844 19.308594 L 27.007812 19.308594 C 28.792969 19.308594 29.90625 17.382812 29.011719 15.835938 L 25.367188 9.519531 C 24.472656 7.972656 22.246094 7.972656 21.355469 9.519531 Z M 21.359375 9.519531 " fill-opacity="1" fill-rule="nonzero"/><g clip-path="url(#0d45b3a50b)"><path fill="#f28a1a" d="M 7.910156 9.519531 L 4.261719 15.835938 C 3.371094 17.382812 4.484375 19.308594 6.265625 19.308594 L 13.5625 19.308594 C 15.34375 19.308594 16.457031 17.382812 15.5625 15.835938 L 11.917969 9.519531 C 11.027344 7.972656 8.796875 7.972656 7.90625 9.519531 Z M 7.910156 9.519531 " fill-opacity="1" fill-rule="nonzero"/></g><g clip-path="url(#e09198491a)"><path fill="#f28a1a" d="M 5.796875 20.992188 L 27.480469 20.992188 C 27.785156 20.992188 28.082031 21.050781 28.363281 21.171875 C 28.648438 21.289062 28.898438 21.453125 29.117188 21.671875 C 29.332031 21.890625 29.5 22.140625 29.617188 22.421875 C 29.734375 22.707031 29.792969 23.003906 29.792969 23.308594 L 29.792969 23.8125 C 29.792969 24.121094 29.734375 24.414062 29.617188 24.699219 C 29.5 24.984375 29.332031 25.234375 29.117188 25.449219 C 28.898438 25.667969 28.648438 25.835938 28.363281 25.953125 C 28.082031 26.070312 27.785156 26.128906 27.480469 26.128906 L 5.796875 26.128906 C 5.492188 26.128906 5.195312 26.070312 4.910156 25.953125 C 4.628906 25.835938 4.378906 25.667969 4.160156 25.449219 C 3.941406 25.234375 3.777344 24.984375 3.660156 24.699219 C 3.539062 24.414062 3.480469 24.121094 3.480469 23.8125 L 3.480469 23.308594 C 3.480469 23.003906 3.539062 22.707031 3.660156 22.421875 C 3.777344 22.140625 3.941406 21.890625 4.160156 21.671875 C 4.378906 21.453125 4.628906 21.289062 4.910156 21.171875 C 5.195312 21.050781 5.492188 20.992188 5.796875 20.992188 Z M 5.796875 20.992188 " fill-opacity="1" fill-rule="nonzero"/></g><g clip-path="url(#e19b6dc779)"><path fill="#f28a1a" d="M 18.644531 11.625 L 22.292969 5.308594 C 23.183594 3.765625 22.066406 1.835938 20.289062 1.835938 L 12.992188 1.835938 C 11.210938 1.835938 10.097656 3.765625 10.992188 5.308594 L 14.636719 11.625 C 15.53125 13.171875 17.757812 13.171875 18.648438 11.625 Z M 18.644531 11.625 " fill-opacity="1" fill-rule="nonzero"/></g></svg>