<svg xmlns="http://www.w3.org/2000/svg" xmlns:xlink="http://www.w3.org/1999/xlink" width="160" zoomAndPan="magnify" viewBox="0 0 120 30.000001" height="40" preserveAspectRatio="xMidYMid meet" version="1.0"><defs><clipPath id="6657012074"><path d="M 38 5.304688 L 47 5.304688 L 47 23 L 38 23 Z M 38 5.304688 " clip-rule="nonzero"/></clipPath><clipPath id="b86b59e0e2"><path d="M 47 10 L 61 10 L 61 23.449219 L 47 23.449219 Z M 47 10 " clip-rule="nonzero"/></clipPath><clipPath id="db2e41e6d2"><path d="M 63 5.304688 L 67 5.304688 L 67 23 L 63 23 Z M 63 5.304688 " clip-rule="nonzero"/></clipPath><clipPath id="5ead59479d"><path d="M 68 10 L 82 10 L 82 23.449219 L 68 23.449219 Z M 68 10 " clip-rule="nonzero"/></clipPath><clipPath id="13f7cebc6d"><path d="M 82 5.304688 L 98 5.304688 L 98 23.449219 L 82 23.449219 Z M 82 5.304688 " clip-rule="nonzero"/></clipPath><clipPath id="855306d128"><path d="M 99 5.304688 L 102.703125 5.304688 L 102.703125 10 L 99 10 Z M 99 5.304688 " clip-rule="nonzero"/></clipPath><clipPath id="c0700c7985"><path d="M 99 10 L 102.703125 10 L 102.703125 23 L 99 23 Z M 99 10 " clip-rule="nonzero"/></clipPath><clipPath id="fcd9871fa0"><path d="M 17.058594 10 L 27 10 L 27 19 L 17.058594 19 Z M 17.058594 10 " clip-rule="nonzero"/></clipPath><clipPath id="3f788da6e2"><path d="M 17.058594 19 L 38 19 L 38 23.449219 L 17.058594 23.449219 Z M 17.058594 19 " clip-rule="nonzero"/></clipPath><clipPath id="d8391ede1a"><path d="M 22 5.304688 L 32 5.304688 L 32 14 L 22 14 Z M 22 5.304688 " clip-rule="nonzero"/></clipPath></defs><g clip-path="url(#6657012074)"><path fill="#0e2547" d="M 40.65625 22.777344 L 40.65625 12.953125 L 38.355469 12.953125 L 38.355469 10.601562 L 40.675781 10.601562 L 40.675781 8.226562 C 40.675781 7.375 40.902344 6.742188 41.363281 6.339844 C 41.820312 5.9375 42.460938 5.730469 43.285156 5.730469 L 46.777344 5.730469 L 46.777344 8.082031 L 43.671875 8.082031 L 43.671875 10.601562 L 46.527344 10.601562 L 46.527344 12.953125 L 43.714844 12.953125 L 43.714844 22.777344 L 40.652344 22.777344 Z M 40.65625 22.777344 " fill-opacity="1" fill-rule="nonzero"/></g><g clip-path="url(#b86b59e0e2)"><path fill="#0e2547" d="M 54.21875 23.019531 C 52.886719 23.019531 51.738281 22.761719 50.757812 22.238281 C 49.777344 21.71875 49.019531 20.984375 48.476562 20.035156 C 47.933594 19.089844 47.664062 17.972656 47.664062 16.691406 C 47.664062 15.40625 47.9375 14.269531 48.476562 13.320312 C 49.019531 12.375 49.78125 11.644531 50.765625 11.128906 C 51.75 10.613281 52.902344 10.359375 54.214844 10.359375 C 55.527344 10.359375 56.710938 10.617188 57.675781 11.128906 C 58.644531 11.644531 59.394531 12.375 59.929688 13.320312 C 60.460938 14.269531 60.730469 15.390625 60.730469 16.691406 C 60.730469 17.988281 60.460938 19.09375 59.929688 20.050781 C 59.394531 21.003906 58.640625 21.734375 57.667969 22.25 C 56.695312 22.765625 55.546875 23.019531 54.21875 23.019531 Z M 54.21875 20.382812 C 55.3125 20.382812 56.164062 20.054688 56.765625 19.398438 C 57.371094 18.738281 57.671875 17.835938 57.671875 16.683594 C 57.671875 15.535156 57.371094 14.613281 56.765625 13.964844 C 56.164062 13.316406 55.3125 12.992188 54.21875 12.992188 C 53.125 12.992188 52.25 13.316406 51.640625 13.964844 C 51.03125 14.613281 50.726562 15.511719 50.726562 16.664062 C 50.726562 17.8125 51.03125 18.738281 51.640625 19.390625 C 52.25 20.050781 53.113281 20.378906 54.21875 20.378906 Z M 54.21875 20.382812 " fill-opacity="1" fill-rule="nonzero"/></g><g clip-path="url(#db2e41e6d2)"><path fill="#0e2547" d="M 63.03125 5.730469 L 66.089844 5.730469 L 66.089844 22.777344 L 63.03125 22.777344 Z M 63.03125 5.730469 " fill-opacity="1" fill-rule="nonzero"/></g><g clip-path="url(#5ead59479d)"><path fill="#0e2547" d="M 72.957031 23.003906 C 71.515625 23.003906 70.390625 22.65625 69.574219 21.96875 C 68.761719 21.28125 68.355469 20.367188 68.355469 19.226562 C 68.355469 18.089844 68.769531 17.117188 69.597656 16.46875 C 70.425781 15.820312 71.621094 15.496094 73.183594 15.496094 L 76.945312 15.496094 L 76.945312 15.007812 C 76.945312 13.519531 76.066406 12.777344 74.3125 12.777344 C 72.832031 12.777344 71.9375 13.304688 71.621094 14.359375 L 68.558594 14.359375 C 68.804688 13.0625 69.425781 12.066406 70.421875 11.386719 C 71.414062 10.703125 72.710938 10.363281 74.3125 10.363281 C 76.121094 10.363281 77.496094 10.765625 78.441406 11.570312 C 79.386719 12.375 79.859375 13.550781 79.859375 15.089844 L 79.859375 19.753906 L 81.316406 19.753906 L 81.316406 22.777344 L 78.175781 22.777344 L 78.175781 20.828125 L 77.3125 20.828125 C 76.886719 21.519531 76.3125 22.050781 75.59375 22.433594 C 74.878906 22.8125 73.996094 23 72.957031 23 Z M 73.40625 20.667969 C 74.078125 20.667969 74.679688 20.542969 75.214844 20.292969 C 75.75 20.039062 76.167969 19.703125 76.480469 19.277344 C 76.789062 18.847656 76.945312 18.371094 76.945312 17.84375 L 76.945312 17.558594 L 73.351562 17.558594 C 71.964844 17.558594 71.273438 18.066406 71.273438 19.082031 C 71.273438 19.582031 71.464844 19.972656 71.839844 20.25 C 72.214844 20.523438 72.742188 20.664062 73.410156 20.664062 Z M 73.40625 20.667969 " fill-opacity="1" fill-rule="nonzero"/></g><g clip-path="url(#13f7cebc6d)"><path fill="#0e2547" d="M 91.199219 23.019531 C 90.167969 23.019531 89.292969 22.832031 88.566406 22.453125 C 87.839844 22.074219 87.265625 21.53125 86.839844 20.832031 L 85.980469 20.832031 L 85.980469 22.78125 L 82.835938 22.78125 L 82.835938 19.761719 L 84.355469 19.761719 L 84.355469 5.730469 L 87.414062 5.730469 L 87.414062 12.371094 L 87.5 12.371094 C 87.867188 11.722656 88.386719 11.222656 89.0625 10.878906 C 89.730469 10.53125 90.53125 10.359375 91.464844 10.359375 C 92.640625 10.359375 93.648438 10.617188 94.484375 11.140625 C 95.320312 11.664062 95.960938 12.394531 96.40625 13.34375 C 96.851562 14.289062 97.078125 15.40625 97.078125 16.691406 C 97.078125 17.972656 96.847656 19.070312 96.398438 20.027344 C 95.945312 20.984375 95.285156 21.71875 94.414062 22.238281 C 93.542969 22.761719 92.472656 23.019531 91.203125 23.019531 Z M 90.640625 20.402344 C 91.75 20.402344 92.589844 20.074219 93.160156 19.417969 C 93.726562 18.761719 94.011719 17.851562 94.011719 16.691406 C 94.011719 15.527344 93.726562 14.617188 93.160156 13.960938 C 92.589844 13.304688 91.753906 12.976562 90.640625 12.976562 C 89.667969 12.976562 88.886719 13.246094 88.300781 13.796875 C 87.707031 14.34375 87.414062 15.09375 87.414062 16.039062 L 87.414062 17.339844 C 87.414062 18.285156 87.707031 19.035156 88.300781 19.582031 C 88.886719 20.132812 89.667969 20.402344 90.640625 20.402344 Z M 90.640625 20.402344 " fill-opacity="1" fill-rule="nonzero"/></g><g clip-path="url(#855306d128)"><path fill="#f28a1a" d="M 100.894531 9.148438 C 100.414062 9.148438 100.003906 8.988281 99.671875 8.667969 C 99.339844 8.347656 99.167969 7.957031 99.167969 7.5 C 99.167969 7.042969 99.335938 6.652344 99.671875 6.332031 C 100.007812 6.011719 100.417969 5.851562 100.894531 5.851562 C 101.371094 5.851562 101.78125 6.011719 102.117188 6.332031 C 102.453125 6.652344 102.617188 7.042969 102.617188 7.5 C 102.617188 7.957031 102.453125 8.347656 102.117188 8.667969 C 101.777344 8.988281 101.371094 9.148438 100.894531 9.148438 Z M 100.894531 9.148438 " fill-opacity="1" fill-rule="nonzero"/></g><g clip-path="url(#c0700c7985)"><path fill="#0e2547" d="M 99.375 10.601562 L 102.433594 10.601562 L 102.433594 22.777344 L 99.375 22.777344 Z M 99.375 10.601562 " fill-opacity="1" fill-rule="nonzero"/></g><path fill="#f28a1a" d="M 30.664062 11.042969 L 27.90625 15.761719 C 27.230469 16.914062 28.070312 18.355469 29.417969 18.355469 L 34.9375 18.355469 C 36.285156 18.355469 37.125 16.914062 36.449219 15.761719 L 33.691406 11.042969 C 33.019531 9.886719 31.332031 9.886719 30.660156 11.042969 Z M 30.664062 11.042969 " fill-opacity="1" fill-rule="nonzero"/><g clip-path="url(#fcd9871fa0)"><path fill="#f28a1a" d="M 20.492188 11.042969 L 17.734375 15.761719 C 17.0625 16.914062 17.902344 18.355469 19.25 18.355469 L 24.765625 18.355469 C 26.113281 18.355469 26.957031 16.914062 26.28125 15.761719 L 23.523438 11.042969 C 22.847656 9.886719 21.164062 9.886719 20.488281 11.042969 Z M 20.492188 11.042969 " fill-opacity="1" fill-rule="nonzero"/></g><g clip-path="url(#3f788da6e2)"><path fill="#f28a1a" d="M 18.894531 19.613281 L 35.289062 19.613281 C 35.523438 19.613281 35.746094 19.65625 35.960938 19.746094 C 36.175781 19.832031 36.363281 19.957031 36.527344 20.121094 C 36.691406 20.28125 36.820312 20.46875 36.90625 20.679688 C 36.996094 20.890625 37.042969 21.113281 37.042969 21.34375 L 37.042969 21.71875 C 37.042969 21.949219 36.996094 22.167969 36.90625 22.378906 C 36.820312 22.59375 36.691406 22.78125 36.527344 22.941406 C 36.363281 23.105469 36.175781 23.230469 35.960938 23.316406 C 35.746094 23.40625 35.523438 23.449219 35.289062 23.449219 L 18.894531 23.449219 C 18.664062 23.449219 18.441406 23.40625 18.226562 23.316406 C 18.011719 23.230469 17.820312 23.105469 17.65625 22.941406 C 17.492188 22.78125 17.367188 22.59375 17.277344 22.378906 C 17.1875 22.167969 17.144531 21.949219 17.144531 21.71875 L 17.144531 21.34375 C 17.144531 21.113281 17.1875 20.890625 17.277344 20.679688 C 17.367188 20.46875 17.492188 20.28125 17.65625 20.121094 C 17.820312 19.957031 18.011719 19.832031 18.226562 19.746094 C 18.441406 19.65625 18.664062 19.613281 18.894531 19.613281 Z M 18.894531 19.613281 " fill-opacity="1" fill-rule="nonzero"/></g><g clip-path="url(#d8391ede1a)"><path fill="#f28a1a" d="M 28.609375 12.617188 L 31.367188 7.898438 C 32.042969 6.742188 31.195312 5.304688 29.851562 5.304688 L 24.335938 5.304688 C 22.988281 5.304688 22.148438 6.742188 22.824219 7.898438 L 25.582031 12.617188 C 26.253906 13.769531 27.941406 13.769531 28.613281 12.617188 Z M 28.609375 12.617188 " fill-opacity="1" fill-rule="nonzero"/></g></svg>