<svg xmlns="http://www.w3.org/2000/svg" xmlns:xlink="http://www.w3.org/1999/xlink" width="160" zoomAndPan="magnify" viewBox="0 0 120 30.000001" height="40" preserveAspectRatio="xMidYMid meet" version="1.0"><defs><clipPath id="c9c5858ea8"><path d="M 23.394531 3 L 34 3 L 34 26 L 23.394531 26 Z M 23.394531 3 " clip-rule="nonzero"/></clipPath><clipPath id="aed4830bce"><path d="M 34 2.503906 L 49 2.503906 L 49 26.457031 L 34 26.457031 Z M 34 2.503906 " clip-rule="nonzero"/></clipPath><clipPath id="e8ff8baa8f"><path d="M 90 3 L 96.703125 3 L 96.703125 26 L 90 26 Z M 90 3 " clip-rule="nonzero"/></clipPath></defs><g clip-path="url(#c9c5858ea8)"><path fill="#0a1f44" d="M 24.535156 3.03125 L 32.378906 3.03125 C 33.003906 3.03125 33.519531 3.542969 33.519531 4.167969 L 33.519531 6.472656 C 33.519531 7.097656 33.003906 7.605469 32.378906 7.605469 L 30.519531 7.605469 C 29.894531 7.605469 29.378906 8.117188 29.378906 8.742188 L 29.378906 11.945312 L 33.074219 11.945312 L 33.074219 16.304688 L 29.378906 16.304688 L 29.378906 24.785156 C 29.378906 25.40625 28.867188 25.917969 28.238281 25.917969 L 24.535156 25.917969 C 23.90625 25.917969 23.394531 25.40625 23.394531 24.785156 L 23.394531 4.179688 C 23.394531 3.542969 23.90625 3.03125 24.535156 3.03125 Z M 24.535156 3.03125 " fill-opacity="1" fill-rule="nonzero"/></g><g clip-path="url(#aed4830bce)"><path fill="#0a1f44" d="M 48.796875 16.4375 C 48.796875 18.742188 48.738281 20.367188 48.636719 21.320312 C 48.535156 22.273438 48.191406 23.148438 47.609375 23.941406 C 47.027344 24.738281 46.265625 25.339844 45.285156 25.769531 C 44.304688 26.203125 43.175781 26.40625 41.875 26.40625 C 40.574219 26.40625 39.539062 26.203125 38.558594 25.804688 C 37.578125 25.40625 36.789062 24.804688 36.199219 24 C 35.605469 23.195312 35.25 22.332031 35.136719 21.390625 C 35.023438 20.445312 34.964844 18.800781 34.964844 16.4375 L 34.964844 12.523438 C 34.964844 10.21875 35.023438 8.59375 35.125 7.640625 C 35.230469 6.6875 35.570312 5.8125 36.152344 5.019531 C 36.734375 4.222656 37.496094 3.621094 38.476562 3.191406 C 39.457031 2.757812 40.585938 2.554688 41.886719 2.554688 C 43.1875 2.554688 44.222656 2.757812 45.203125 3.15625 C 46.183594 3.554688 46.972656 4.15625 47.5625 4.960938 C 48.15625 5.769531 48.511719 6.628906 48.625 7.574219 C 48.738281 8.515625 48.796875 10.160156 48.796875 12.523438 Z M 42.820312 8.914062 C 42.820312 7.84375 42.765625 7.164062 42.640625 6.867188 C 42.515625 6.574219 42.273438 6.425781 41.910156 6.425781 C 41.601562 6.425781 41.363281 6.550781 41.191406 6.789062 C 41.019531 7.027344 40.941406 7.742188 40.941406 8.914062 L 40.941406 19.59375 C 40.941406 20.921875 40.996094 21.742188 41.101562 22.058594 C 41.203125 22.375 41.464844 22.523438 41.863281 22.523438 C 42.261719 22.523438 42.535156 22.34375 42.640625 21.992188 C 42.742188 21.636719 42.808594 20.777344 42.808594 19.4375 L 42.808594 8.914062 Z M 42.820312 8.914062 " fill-opacity="1" fill-rule="nonzero"/></g><path fill="#0a1f44" d="M 74.664062 4.179688 C 74.664062 3.554688 75.175781 3.042969 75.804688 3.042969 L 80.625 3.042969 C 82.507812 3.042969 83.933594 3.191406 84.902344 3.484375 C 85.871094 3.78125 86.65625 4.371094 87.25 5.257812 C 87.84375 6.140625 88.140625 7.585938 88.140625 9.558594 C 88.140625 10.898438 87.933594 11.828125 87.511719 12.351562 C 87.089844 12.875 86.257812 13.28125 85.015625 13.566406 C 86.394531 13.875 87.328125 14.394531 87.832031 15.109375 C 88.320312 15.835938 88.574219 16.9375 88.574219 18.425781 L 88.574219 20.546875 C 88.574219 22.09375 88.390625 23.238281 88.035156 23.988281 C 87.683594 24.738281 87.113281 25.238281 86.339844 25.519531 C 85.5625 25.792969 83.964844 25.929688 81.574219 25.929688 L 75.804688 25.929688 C 75.175781 25.929688 74.664062 25.417969 74.664062 24.792969 Z M 80.636719 6.949219 L 80.636719 12.035156 C 80.886719 12.035156 81.09375 12.023438 81.230469 12.023438 C 81.8125 12.023438 82.1875 11.875 82.347656 11.589844 C 82.507812 11.308594 82.585938 10.480469 82.585938 9.128906 C 82.585938 8.414062 82.519531 7.914062 82.394531 7.617188 C 82.269531 7.324219 82.085938 7.152344 81.878906 7.074219 C 81.675781 6.992188 81.253906 6.960938 80.636719 6.949219 Z M 80.636719 15.597656 L 80.636719 22 C 81.480469 21.980469 82.015625 21.84375 82.246094 21.605469 C 82.472656 21.367188 82.597656 20.789062 82.597656 19.867188 L 82.597656 17.734375 C 82.597656 16.757812 82.496094 16.15625 82.289062 15.949219 C 82.085938 15.746094 81.539062 15.621094 80.648438 15.597656 Z M 80.636719 15.597656 " fill-opacity="1" fill-rule="nonzero"/><g clip-path="url(#e8ff8baa8f)"><path fill="#0a1f44" d="M 96.703125 4.179688 L 96.703125 24.792969 C 96.703125 25.417969 96.1875 25.929688 95.5625 25.929688 L 91.867188 25.929688 C 91.242188 25.929688 90.726562 25.417969 90.726562 24.792969 L 90.726562 4.179688 C 90.726562 3.554688 91.242188 3.042969 91.867188 3.042969 L 95.5625 3.042969 C 96.1875 3.042969 96.703125 3.554688 96.703125 4.179688 Z M 96.703125 4.179688 " fill-opacity="1" fill-rule="nonzero"/></g><path fill="#f28a1a" d="M 70.378906 3.042969 L 61.746094 3.042969 L 58.691406 25.917969 L 63.925781 25.917969 L 66.285156 7.015625 L 68.0625 25.917969 L 73.785156 25.917969 Z M 70.378906 3.042969 " fill-opacity="1" fill-rule="nonzero"/><path fill="#0a1f44" d="M 57.015625 4.179688 L 57.015625 25.917969 L 56.640625 25.917969 C 53.527344 25.917969 51.03125 23.433594 51.03125 20.332031 L 51.03125 4.179688 C 51.03125 3.542969 51.554688 3.054688 52.160156 3.054688 L 55.851562 3.054688 C 56.492188 3.054688 57.015625 3.542969 57.015625 4.179688 Z M 57.015625 4.179688 " fill-opacity="1" fill-rule="nonzero"/></svg>