<?xml version="1.0" encoding="UTF-8"?>
<svg id="Layer_2" data-name="Layer 2" xmlns="http://www.w3.org/2000/svg" viewBox="0 0 64.3 21.01">
  <defs>
    <style>
      .cls-1 {
        fill: #f28a1a;
      }

      .cls-1, .cls-2 {
        stroke-width: 0px;
      }

      .cls-2 {
        fill: #0a1f44;
      }
    </style>
  </defs>
  <g id="Layer_1-2" data-name="Layer 1">
    <g>
      <path class="cls-2" d="M1,.42h6.88c.55,0,1,.45,1,1v2.03c0,.55-.45,1-1,1h-1.63c-.55,0-1,.45-1,1v2.82h3.24v3.84h-3.24v7.47c0,.55-.45,1-1,1H1c-.55,0-1-.45-1-1V1.43C0,.87.45.42,1,.42Z"/>
      <path class="cls-2" d="M22.28,12.23c0,2.03-.05,3.46-.14,4.3s-.39,1.61-.9,2.31-1.18,1.23-2.04,1.61-1.85.56-2.99.56-2.05-.18-2.91-.53-1.55-.88-2.07-1.59-.83-1.47-.93-2.3-.15-2.28-.15-4.36v-3.45c0-2.03.05-3.46.14-4.3s.39-1.61.9-2.31,1.18-1.23,2.04-1.61,1.85-.56,2.99-.56,2.05.18,2.91.53,1.55.88,2.07,1.59.83,1.47.93,2.3.15,2.28.15,4.36v3.45ZM17.04,5.6c0-.94-.05-1.54-.16-1.8s-.32-.39-.64-.39c-.27,0-.48.11-.63.32s-.22.84-.22,1.87v9.41c0,1.17.05,1.89.14,2.17s.32.41.67.41.59-.16.68-.47.15-1.07.15-2.25V5.6Z"/>
      <path class="cls-2" d="M44.97,1.43c0-.55.45-1,1-1h4.23c1.65,0,2.9.13,3.75.39.85.26,1.54.78,2.06,1.56s.78,2.05.78,3.79c0,1.18-.18,2-.55,2.46-.37.46-1.1.82-2.19,1.07,1.21.27,2.03.73,2.47,1.36.43.64.65,1.61.65,2.92v1.87c0,1.36-.16,2.37-.47,3.03s-.81,1.1-1.49,1.35c-.68.24-2.08.36-4.18.36h-5.06c-.55,0-1-.45-1-1V1.43ZM50.21,3.87v4.48c.22,0,.4-.01.52-.01.51,0,.84-.13.98-.38s.21-.98.21-2.17c0-.63-.06-1.07-.17-1.33s-.27-.41-.45-.48-.55-.1-1.09-.11ZM50.21,11.49v5.64c.74-.02,1.21-.14,1.41-.35s.31-.72.31-1.53v-1.88c0-.86-.09-1.39-.27-1.57s-.66-.29-1.44-.31Z"/>
      <path class="cls-2" d="M64.3,1.43v18.16c0,.55-.45,1-1,1h-3.24c-.55,0-1-.45-1-1V1.43c0-.55.45-1,1-1h3.24c.55,0,1,.45,1,1Z"/>
      <path class="cls-1" d="M41.21.43h-7.57l-2.68,20.15h4.59l2.07-16.65,1.56,16.65h5.02L41.21.43Z"/>
      <path class="cls-2" d="M29.49,1.43v19.15h-.33c-2.73,0-4.92-2.19-4.92-4.92V1.43c0-.56.46-.99.99-.99h3.24c.56,0,1.02.43,1.02.99Z"/>
    </g>
  </g>
</svg>