<svg xmlns="http://www.w3.org/2000/svg" xmlns:xlink="http://www.w3.org/1999/xlink" width="160" zoomAndPan="magnify" viewBox="0 0 120 30.000001" height="40" preserveAspectRatio="xMidYMid meet" version="1.0"><defs><clipPath id="9e9d84ce73"><path d="M 108 3 L 112.984375 3 L 112.984375 8 L 108 8 Z M 108 3 " clip-rule="nonzero"/></clipPath><clipPath id="465e1f2bd8"><path d="M 108 9 L 112.984375 9 L 112.984375 26 L 108 26 Z M 108 9 " clip-rule="nonzero"/></clipPath><clipPath id="7a7f9af21e"><path d="M 4.839844 21 L 31 21 L 31 26.128906 L 4.839844 26.128906 Z M 4.839844 21 " clip-rule="nonzero"/></clipPath><clipPath id="ef852ab1d7"><path d="M 11 2.902344 L 24 2.902344 L 24 14 L 11 14 Z M 11 2.902344 " clip-rule="nonzero"/></clipPath></defs><path fill="#0e2547" d="M 34.625 25.269531 L 34.625 12.695312 L 31.71875 12.695312 L 31.71875 9.683594 L 34.648438 9.683594 L 34.648438 6.644531 C 34.648438 5.554688 34.9375 4.746094 35.515625 4.230469 C 36.097656 3.71875 36.90625 3.453125 37.945312 3.453125 L 42.355469 3.453125 L 42.355469 6.460938 L 38.4375 6.460938 L 38.4375 9.683594 L 42.042969 9.683594 L 42.042969 12.695312 L 38.484375 12.695312 L 38.484375 25.269531 L 34.621094 25.269531 Z M 34.625 25.269531 " fill-opacity="1" fill-rule="nonzero"/><path fill="#0e2547" d="M 51.757812 25.582031 C 50.078125 25.582031 48.621094 25.25 47.382812 24.578125 C 46.144531 23.914062 45.1875 22.972656 44.503906 21.761719 C 43.816406 20.550781 43.480469 19.121094 43.480469 17.476562 C 43.480469 15.832031 43.824219 14.378906 44.503906 13.164062 C 45.1875 11.953125 46.152344 11.019531 47.394531 10.359375 C 48.640625 9.699219 50.09375 9.375 51.753906 9.375 C 53.410156 9.375 54.90625 9.707031 56.125 10.359375 C 57.347656 11.019531 58.292969 11.953125 58.96875 13.164062 C 59.644531 14.378906 59.980469 15.816406 59.980469 17.476562 C 59.980469 19.136719 59.644531 20.554688 58.96875 21.777344 C 58.292969 23 57.34375 23.9375 56.117188 24.597656 C 54.886719 25.253906 53.433594 25.582031 51.757812 25.582031 Z M 51.757812 22.203125 C 53.140625 22.203125 54.214844 21.785156 54.976562 20.941406 C 55.738281 20.101562 56.121094 18.945312 56.121094 17.472656 C 56.121094 16 55.738281 14.820312 54.976562 13.992188 C 54.214844 13.160156 53.140625 12.746094 51.757812 12.746094 C 50.375 12.746094 49.269531 13.160156 48.5 13.992188 C 47.730469 14.820312 47.34375 15.972656 47.34375 17.445312 C 47.34375 18.917969 47.730469 20.101562 48.5 20.9375 C 49.269531 21.777344 50.359375 22.199219 51.757812 22.199219 Z M 51.757812 22.203125 " fill-opacity="1" fill-rule="nonzero"/><path fill="#0e2547" d="M 62.890625 3.453125 L 66.753906 3.453125 L 66.753906 25.269531 L 62.890625 25.269531 Z M 62.890625 3.453125 " fill-opacity="1" fill-rule="nonzero"/><path fill="#0e2547" d="M 75.425781 25.558594 C 73.605469 25.558594 72.1875 25.117188 71.15625 24.234375 C 70.128906 23.355469 69.613281 22.183594 69.613281 20.726562 C 69.613281 19.269531 70.140625 18.027344 71.183594 17.195312 C 72.230469 16.363281 73.738281 15.949219 75.714844 15.949219 L 80.464844 15.949219 L 80.464844 15.324219 C 80.464844 13.421875 79.359375 12.46875 77.140625 12.46875 C 75.273438 12.46875 74.136719 13.144531 73.738281 14.492188 L 69.875 14.492188 C 70.183594 12.832031 70.96875 11.558594 72.226562 10.691406 C 73.480469 9.816406 75.117188 9.378906 77.140625 9.378906 C 79.425781 9.378906 81.160156 9.894531 82.355469 10.921875 C 83.550781 11.953125 84.148438 13.457031 84.148438 15.429688 L 84.148438 21.402344 L 85.988281 21.402344 L 85.988281 25.269531 L 82.019531 25.269531 L 82.019531 22.773438 L 80.929688 22.773438 C 80.394531 23.660156 79.667969 24.339844 78.761719 24.828125 C 77.855469 25.316406 76.742188 25.554688 75.425781 25.554688 Z M 75.996094 22.570312 C 76.84375 22.570312 77.605469 22.410156 78.28125 22.089844 C 78.953125 21.765625 79.484375 21.335938 79.878906 20.789062 C 80.269531 20.238281 80.464844 19.628906 80.464844 18.957031 L 80.464844 18.589844 L 75.925781 18.589844 C 74.175781 18.589844 73.304688 19.238281 73.304688 20.539062 C 73.304688 21.179688 73.539062 21.679688 74.015625 22.03125 C 74.492188 22.386719 75.15625 22.5625 76 22.5625 Z M 75.996094 22.570312 " fill-opacity="1" fill-rule="nonzero"/><path fill="#0e2547" d="M 98.46875 25.582031 C 97.171875 25.582031 96.066406 25.335938 95.148438 24.855469 C 94.230469 24.367188 93.503906 23.675781 92.96875 22.78125 L 91.878906 22.78125 L 91.878906 25.277344 L 87.90625 25.277344 L 87.90625 21.40625 L 89.828125 21.40625 L 89.828125 3.453125 L 93.691406 3.453125 L 93.691406 11.949219 L 93.796875 11.949219 C 94.261719 11.117188 94.921875 10.480469 95.773438 10.039062 C 96.617188 9.59375 97.628906 9.375 98.808594 9.375 C 100.296875 9.375 101.566406 9.707031 102.625 10.375 C 103.679688 11.046875 104.488281 11.980469 105.050781 13.191406 C 105.613281 14.40625 105.898438 15.832031 105.898438 17.476562 C 105.898438 19.121094 105.609375 20.527344 105.039062 21.75 C 104.46875 22.972656 103.636719 23.914062 102.535156 24.578125 C 101.433594 25.25 100.078125 25.582031 98.476562 25.582031 Z M 97.769531 22.230469 C 99.167969 22.230469 100.230469 21.8125 100.949219 20.96875 C 101.667969 20.128906 102.027344 18.964844 102.027344 17.476562 C 102.027344 15.988281 101.667969 14.824219 100.949219 13.984375 C 100.230469 13.144531 99.171875 12.722656 97.769531 12.722656 C 96.539062 12.722656 95.550781 13.070312 94.808594 13.773438 C 94.0625 14.476562 93.691406 15.433594 93.691406 16.648438 L 93.691406 18.308594 C 93.691406 19.519531 94.0625 20.476562 94.808594 21.179688 C 95.550781 21.882812 96.539062 22.230469 97.769531 22.230469 Z M 97.769531 22.230469 " fill-opacity="1" fill-rule="nonzero"/><g clip-path="url(#9e9d84ce73)"><path fill="#f28a1a" d="M 110.71875 7.824219 C 110.109375 7.824219 109.597656 7.621094 109.175781 7.210938 C 108.757812 6.800781 108.539062 6.300781 108.539062 5.714844 C 108.539062 5.128906 108.75 4.628906 109.175781 4.21875 C 109.601562 3.8125 110.117188 3.605469 110.71875 3.605469 C 111.320312 3.605469 111.839844 3.8125 112.261719 4.21875 C 112.6875 4.628906 112.898438 5.128906 112.898438 5.714844 C 112.898438 6.300781 112.6875 6.800781 112.261719 7.210938 C 111.835938 7.621094 111.320312 7.824219 110.71875 7.824219 Z M 110.71875 7.824219 " fill-opacity="1" fill-rule="nonzero"/></g><g clip-path="url(#465e1f2bd8)"><path fill="#0e2547" d="M 108.800781 9.683594 L 112.664062 9.683594 L 112.664062 25.269531 L 108.800781 25.269531 Z M 108.800781 9.683594 " fill-opacity="1" fill-rule="nonzero"/></g><path fill="#f28a1a" d="M 22 10.25 L 18.515625 16.289062 C 17.664062 17.765625 18.726562 19.609375 20.429688 19.609375 L 27.398438 19.609375 C 29.101562 19.609375 30.164062 17.765625 29.3125 16.289062 L 25.828125 10.25 C 24.976562 8.769531 22.847656 8.769531 21.996094 10.25 Z M 22 10.25 " fill-opacity="1" fill-rule="nonzero"/><path fill="#f28a1a" d="M 9.15625 10.25 L 5.671875 16.289062 C 4.820312 17.765625 5.882812 19.609375 7.585938 19.609375 L 14.550781 19.609375 C 16.253906 19.609375 17.316406 17.765625 16.464844 16.289062 L 12.980469 10.25 C 12.128906 8.769531 10 8.769531 9.148438 10.25 Z M 9.15625 10.25 " fill-opacity="1" fill-rule="nonzero"/><g clip-path="url(#7a7f9af21e)"><path fill="#f28a1a" d="M 7.136719 21.21875 L 27.847656 21.21875 C 28.140625 21.21875 28.421875 21.277344 28.691406 21.386719 C 28.964844 21.5 29.203125 21.660156 29.410156 21.867188 C 29.617188 22.074219 29.777344 22.316406 29.890625 22.585938 C 30.003906 22.855469 30.058594 23.140625 30.058594 23.433594 L 30.058594 23.914062 C 30.058594 24.207031 30.003906 24.492188 29.890625 24.761719 C 29.777344 25.035156 29.617188 25.273438 29.410156 25.480469 C 29.203125 25.6875 28.964844 25.847656 28.691406 25.960938 C 28.421875 26.074219 28.140625 26.128906 27.847656 26.128906 L 7.136719 26.128906 C 6.84375 26.128906 6.5625 26.074219 6.289062 25.960938 C 6.019531 25.847656 5.78125 25.6875 5.574219 25.480469 C 5.363281 25.273438 5.207031 25.035156 5.09375 24.761719 C 4.980469 24.492188 4.925781 24.207031 4.925781 23.914062 L 4.925781 23.433594 C 4.925781 23.140625 4.980469 22.855469 5.09375 22.585938 C 5.207031 22.316406 5.363281 22.074219 5.574219 21.867188 C 5.78125 21.660156 6.019531 21.5 6.289062 21.386719 C 6.5625 21.277344 6.84375 21.21875 7.136719 21.21875 Z M 7.136719 21.21875 " fill-opacity="1" fill-rule="nonzero"/></g><g clip-path="url(#ef852ab1d7)"><path fill="#f28a1a" d="M 19.40625 12.261719 L 22.890625 6.222656 C 23.742188 4.746094 22.675781 2.902344 20.976562 2.902344 L 14.011719 2.902344 C 12.308594 2.902344 11.246094 4.746094 12.097656 6.222656 L 15.582031 12.261719 C 16.433594 13.742188 18.5625 13.742188 19.414062 12.261719 Z M 19.40625 12.261719 " fill-opacity="1" fill-rule="nonzero"/></g></svg>